<?xml version="1.0" encoding="utf-8"?>
<!-- Generator: Adobe Illustrator 16.2.1, SVG Export Plug-In . SVG Version: 6.00 Build 0)  -->
<!DOCTYPE svg PUBLIC "-//W3C//DTD SVG 1.1//EN" "http://www.w3.org/Graphics/SVG/1.1/DTD/svg11.dtd">
<svg version="1.1" id="Layer_1" xmlns="http://www.w3.org/2000/svg" xmlns:xlink="http://www.w3.org/1999/xlink" x="0px" y="0px"
	 width="1009px" height="288px" viewBox="0 0 1009 288" enable-background="new 0 0 1009 288" xml:space="preserve">
<g>
	<path d="M301.691,60.378c-0.325-10.396-0.808-20.829-1.451-31.308c2.739,0.325,5.719,0.604,8.945,0.846
		c3.222,0.242,6.849,0.363,10.879,0.363c4.026,0,7.653-0.121,10.879-0.363c3.222-0.242,6.203-0.521,8.945-0.846
		c-0.646,10.479-1.129,20.913-1.451,31.308c-0.325,10.396-0.483,22.283-0.483,35.66v32.879c0,13.38,0.159,25.265,0.483,35.66
		c0.321,10.396,0.805,20.591,1.451,30.582c-2.743-0.325-5.723-0.483-8.945-0.483c-3.226,0-6.853,0-10.879,0
		c-4.031,0-7.657,0-10.879,0c-3.226,0-6.207,0.158-8.945,0.483c0.643-9.991,1.126-20.187,1.451-30.582
		c0.321-10.396,0.483-22.28,0.483-35.66V96.038C302.175,82.662,302.013,70.774,301.691,60.378z"/>
	<path d="M387.998,97.005c4.51-6.769,9.792-12.005,15.835-15.714c6.044-3.706,12.934-5.561,20.67-5.561
		c12.088,0,21.396,3.506,27.923,10.517c6.528,7.011,9.792,18.336,9.792,33.967c0,8.22-0.163,15.473-0.482,21.759
		c-0.325,6.285-0.484,12.571-0.484,18.856c0,5.16,0.121,10.759,0.363,16.803c0.241,6.044,0.521,11.888,0.846,17.527
		c-2.097-0.325-4.756-0.483-7.978-0.483c-3.227,0-6.611,0-10.154,0c-3.547,0-6.932,0-10.154,0c-3.226,0-5.886,0.158-7.978,0.483
		c1.125-8.378,1.851-18.253,2.176-29.615c0.321-11.362,0.483-24.376,0.483-39.044c0-10.154-1.734-17.607-5.198-22.363
		c-3.468-4.752-8.341-7.132-14.626-7.132c-7.253,0-12.572,3.143-15.956,9.429c-3.385,6.286-5.077,14.989-5.077,26.11v9.67
		c0,9.833,0.121,19.099,0.363,27.804c0.242,8.702,0.763,17.084,1.571,25.143c-2.097-0.325-4.714-0.483-7.857-0.483
		s-6.569,0-10.275,0c-3.709,0-7.094,0-10.154,0c-3.064,0-5.723,0.158-7.978,0.483c0.804-8.059,1.33-16.439,1.571-25.143
		c0.242-8.705,0.363-17.971,0.363-27.804v-9.67c0-9.829-0.121-19.057-0.363-27.681c-0.242-8.621-0.767-17.286-1.571-25.989
		c2.901,0.325,5.76,0.604,8.582,0.846c2.818,0.242,5.682,0.363,8.583,0.363s5.761-0.121,8.583-0.363
		c2.818-0.242,5.84-0.521,9.066-0.846l-0.967,18.132L387.998,97.005L387.998,97.005z"/>
	<path d="M529.186,40.917c-7.416,0-13.461,2.176-18.132,6.527c-4.676,4.352-7.012,9.429-7.012,15.231
		c0,5.964,1.813,10.841,5.438,14.626c3.627,3.789,8.18,7.215,13.66,10.274c5.478,3.063,11.363,6.006,17.648,8.824
		c6.285,2.822,12.168,6.286,17.648,10.396c5.477,4.11,10.032,9.107,13.659,14.989c3.625,5.885,5.439,13.418,5.439,22.604
		c0,8.062-1.533,15.435-4.594,22.121c-3.064,6.69-7.416,12.413-13.056,17.165c-5.645,4.756-12.371,8.383-20.188,10.879
		c-7.818,2.497-16.562,3.747-26.23,3.747c-8.703,0-16.481-0.929-23.33-2.78c-6.852-1.851-12.05-4.146-15.593-6.89
		c1.609-5.64,2.98-10.796,4.11-15.473c1.125-4.673,2.093-9.75,2.9-15.23h4.595c0.641,3.548,1.85,6.89,3.625,10.032
		c1.771,3.145,4.026,5.924,6.77,8.341c2.738,2.418,6.045,4.314,9.912,5.683c3.869,1.371,8.22,2.055,13.054,2.055
		c9.672,0,16.804-2.417,21.396-7.253c4.594-4.835,6.891-10.638,6.891-17.406c0-6.123-1.774-11.121-5.317-14.989
		c-3.55-3.868-7.979-7.291-13.298-10.274c-5.319-2.98-11.12-5.882-17.407-8.704c-6.285-2.818-12.089-6.244-17.406-10.275
		c-5.318-4.026-9.754-8.983-13.297-14.868c-3.546-5.881-5.318-13.417-5.318-22.604c0-8.378,1.488-15.793,4.474-22.242
		c2.979-6.444,6.969-11.846,11.967-16.198c4.994-4.352,10.758-7.653,17.285-9.912c6.528-2.255,13.417-3.385,20.671-3.385
		c8.703,0,16.317,1.05,22.846,3.143c6.527,2.097,12.125,4.998,16.803,8.704c-1.451,3.709-2.701,7.294-3.748,10.758
		c-1.049,3.468-2.379,7.857-3.987,13.176h-3.627C553.277,47.849,543.527,40.917,529.186,40.917z"/>
	<path d="M647.648,86.609c0,2.097,0.239,4.11,0.725,6.044l-21.275-0.483c-0.323,3.709-0.604,7.978-0.846,12.813
		s-0.404,9.753-0.484,14.748c-0.082,4.998-0.162,9.833-0.239,14.505c-0.084,4.677-0.121,8.625-0.121,11.846
		c0,8.383,0.198,15.15,0.604,20.309c0.4,5.159,1.088,9.106,2.056,11.846c0.969,2.742,2.336,4.594,4.11,5.562
		c1.771,0.968,4.025,1.45,6.771,1.45c3.059,0,5.317-0.2,6.768-0.604c1.451-0.4,2.902-1.006,4.353-1.813v9.913
		c-3.226,1.449-7.252,2.738-12.089,3.867c-4.834,1.125-9.59,1.691-14.264,1.691c-20.469,0-30.703-12.246-30.703-36.746
		c0-4.674,0.08-9.951,0.242-15.836c0.158-5.882,0.363-11.926,0.604-18.132c0.241-6.203,0.442-12.33,0.604-18.374
		c0.158-6.044,0.242-11.642,0.242-16.802l-16.924,0.242c0.483-1.934,0.725-3.947,0.725-6.044c0-1.934-0.24-4.11-0.725-6.527
		l16.924,0.725c0-4.994-0.084-9.67-0.242-14.022c-0.162-4.352-0.404-9.587-0.725-15.714c5.639-2.255,11.199-4.631,16.68-7.132
		c5.479-2.497,10.959-5.115,16.439-7.857l2.418,1.692c-0.324,2.58-0.604,5.602-0.847,9.066c-0.241,3.468-0.481,7.094-0.725,10.879
		c-0.242,3.789-0.404,7.657-0.484,11.604c-0.082,3.951-0.12,7.698-0.12,11.242l21.274-0.483
		C647.889,82.5,647.648,84.675,647.648,86.609z"/>
	<path d="M655.744,111.994c3.301-8.058,7.695-14.785,13.176-20.187c5.478-5.398,11.805-9.429,18.979-12.088
		c7.17-2.66,14.543-3.989,22.12-3.989c18.857,0,33.441,5.319,43.759,15.956c10.312,10.638,15.473,25.064,15.473,43.275
		c0,9.833-1.451,18.699-4.352,26.594c-2.9,7.897-6.974,14.627-12.209,20.187c-5.238,5.561-11.482,9.712-18.736,12.45
		c-7.252,2.738-15.23,4.109-23.935,4.109c-7.254,0-14.385-0.967-21.396-2.9c-7.01-1.935-13.338-5.197-18.979-9.791
		c-5.643-4.594-10.194-10.596-13.657-18.012c-3.47-7.41-5.197-16.519-5.197-27.319C650.789,129.484,652.439,120.055,655.744,111.994
		z M728.15,98.334c-3.547-7.815-9.429-11.725-17.648-11.725c-7.414,0-13.258,4.352-17.527,13.055
		c-4.271,8.703-6.405,22.325-6.405,40.857c0,6.77,0.399,13.056,1.209,18.857c0.805,5.802,2.135,10.842,3.987,15.11
		c1.853,4.271,4.271,7.615,7.254,10.031c2.98,2.418,6.728,3.627,11.242,3.627c15.474,0,23.209-18.937,23.209-56.812
		C733.471,117.154,731.695,106.154,728.15,98.334z"/>
	<path d="M860.756,94.708c-3.789-4.431-9.391-6.648-16.803-6.648c-9.67,0-16.922,4.393-21.758,13.176
		c-4.834,8.786-7.252,20.995-7.252,36.626c0,14.668,3.059,25.91,9.186,33.726c6.125,7.819,15.068,11.727,26.836,11.727
		c4.994,0,9.83-1.168,14.506-3.506c4.672-2.336,8.138-4.957,10.396-7.857l2.899,2.418c-1.129,2.259-2.096,4.593-2.899,7.011
		c-0.81,2.418-1.613,4.835-2.418,7.253c-3.547,2.742-8.021,5.039-13.418,6.891c-5.402,1.852-11.81,2.779-19.222,2.779
		c-11.766,0-21.678-1.691-29.735-5.076c-8.062-3.385-14.547-7.979-19.461-13.779c-4.918-5.803-8.425-12.368-10.519-19.704
		c-2.096-7.332-3.143-14.705-3.143-22.121c0-8.862,1.487-17.082,4.473-24.66c2.98-7.574,7.254-14.101,12.814-19.583
		c5.561-5.477,12.286-9.791,20.186-12.934c7.896-3.143,16.682-4.714,26.353-4.714c9.188,0,16.961,1.05,23.329,3.143
		c6.365,2.097,12.451,4.835,18.255,8.22c-1.935,3.226-3.748,7.173-5.439,11.846c-1.693,4.677-2.943,9.107-3.748,13.297h-5.803
		C867.08,104.983,864.541,99.143,860.756,94.708z"/>
	<path d="M888.68,53.005c-0.326-13.214-0.809-26.594-1.451-40.132c2.095,0.325,4.753,0.604,7.979,0.846
		c3.223,0.242,6.607,0.363,10.154,0.363c3.543,0,6.928-0.121,10.151-0.363c3.224-0.242,5.883-0.521,7.979-0.846
		c-0.324,6.77-0.604,13.622-0.847,20.55c-0.241,6.932-0.444,14.747-0.604,23.451c-0.164,8.703-0.283,18.657-0.363,29.857
		c-0.084,11.204-0.121,24.539-0.121,40.011c0,2.259,0.037,3.709,0.121,4.352c0.08,0.646,0.441,0.967,1.088,0.967
		c0.644,0,2.213-1.247,4.716-3.747c2.495-2.497,5.719-6.082,9.67-10.758c3.946-4.673,8.541-10.275,13.778-16.802
		c5.236-6.528,11-13.818,17.287-21.879c1.935,0.325,3.826,0.604,5.683,0.846c1.85,0.242,3.745,0.363,5.68,0.363
		c1.771,0,3.707-0.121,5.803-0.363c2.095-0.242,4.674-0.521,7.736-0.846c-2.097,2.417-5.197,5.723-9.308,9.912
		c-4.11,4.193-8.342,8.503-12.692,12.934c-4.353,4.435-8.461,8.666-12.33,12.692c-3.867,4.031-6.689,7.011-8.461,8.945
		c0.643,0.967,2.055,3.226,4.229,6.769c2.177,3.547,4.793,7.778,7.857,12.692c3.061,4.917,6.285,10.154,9.67,15.715
		c3.385,5.56,6.566,10.879,9.551,15.956c2.98,5.076,5.599,9.512,7.855,13.296c2.256,3.789,3.707,6.248,4.352,7.374
		c-3.383-0.325-6.609-0.483-9.67-0.483c-3.062,0-6.205,0-9.428,0c-3.227,0-6.328,0-9.309,0c-2.984,0-6.007,0.158-9.066,0.483
		c-0.807-0.805-2.137-2.818-3.988-6.044c-1.854-3.222-3.951-6.89-6.285-11c-2.338-4.11-4.756-8.421-7.254-12.935
		c-2.5-4.511-4.877-8.662-7.131-12.451c-2.26-3.785-4.273-6.89-6.045-9.308c-1.775-2.418-2.984-3.626-3.625-3.626
		c-0.646,0-1.088,0.483-1.33,1.451c-0.242,0.967-0.363,3.951-0.363,8.945v13.537c0,2.098,0.037,4.678,0.121,7.736
		c0.08,3.062,0.158,6.165,0.242,9.309c0.078,3.144,0.242,6.086,0.482,8.824c0.242,2.741,0.521,4.594,0.848,5.561
		c-2.902-0.325-5.803-0.483-8.705-0.483c-2.9,0-5.801,0-8.703,0c-2.899,0-5.801,0-8.703,0c-2.899,0-5.801,0.158-8.703,0.483
		c0.644-13.055,1.125-26.189,1.451-39.406c0.32-13.214,0.482-27.72,0.482-43.517V96.521C889.162,80.728,889,66.222,888.68,53.005z"
		/>
</g>
<g>
	<path d="M330.714,262.507c-0.79,0.386-1.742,0.729-2.856,1.033c-1.114,0.304-2.36,0.577-3.736,0.819
		c-1.377,0.244-2.815,0.365-4.313,0.365c-3.2,0-6.158-0.455-8.871-1.367c-2.714-0.912-5.053-2.299-7.018-4.162
		c-1.965-1.862-3.504-4.141-4.617-6.834c-1.115-2.693-1.671-5.762-1.671-9.205c0-3.442,0.556-6.512,1.671-9.204
		c1.113-2.693,2.673-4.972,4.678-6.836c2.005-1.862,4.405-3.28,7.2-4.253c2.794-0.973,5.872-1.459,9.235-1.459
		c2.673,0,5.113,0.273,7.321,0.82c2.207,0.547,4.162,1.207,5.863,1.976c-0.325,0.567-0.588,1.337-0.79,2.309
		c-0.203,0.974-0.364,1.783-0.486,2.431l-0.365,0.121c-0.405-0.484-0.972-1.031-1.701-1.64c-0.729-0.608-1.58-1.194-2.552-1.763
		c-0.972-0.566-2.065-1.042-3.281-1.428c-1.215-0.385-2.552-0.578-4.01-0.578c-2.391,0-4.608,0.387-6.653,1.154
		c-2.046,0.771-3.828,1.955-5.347,3.555c-1.519,1.602-2.704,3.625-3.554,6.076c-0.851,2.451-1.276,5.356-1.276,8.719
		c0,3.361,0.425,6.269,1.276,8.719c0.851,2.451,2.035,4.477,3.554,6.075c1.519,1.601,3.301,2.784,5.347,3.555
		c2.045,0.771,4.262,1.154,6.653,1.154c1.458,0,2.804-0.183,4.04-0.548c1.235-0.363,2.37-0.799,3.402-1.307
		c1.033-0.506,1.964-1.053,2.795-1.64c0.83-0.587,1.528-1.104,2.096-1.55l0.243,0.242l-0.547,3.586
		C332.081,261.77,331.503,262.123,330.714,262.507z"/>
	<path d="M384.786,233.952c1.113-2.693,2.673-4.972,4.678-6.836c2.005-1.862,4.405-3.28,7.2-4.253
		c2.794-0.973,5.853-1.458,9.174-1.458c3.362,0,6.44,0.485,9.235,1.458c2.794,0.973,5.193,2.391,7.199,4.253
		c2.005,1.864,3.563,4.143,4.678,6.836c1.114,2.692,1.671,5.762,1.671,9.204c0,3.443-0.557,6.512-1.671,9.205
		s-2.673,4.972-4.678,6.834c-2.006,1.863-4.405,3.25-7.199,4.162c-2.795,0.912-5.874,1.367-9.235,1.367
		c-3.321,0-6.379-0.455-9.174-1.367s-5.195-2.299-7.2-4.162c-2.005-1.862-3.565-4.141-4.678-6.834
		c-1.115-2.693-1.671-5.762-1.671-9.205C383.115,239.714,383.671,236.646,384.786,233.952z M421.392,234.438
		c-0.851-2.449-2.034-4.475-3.554-6.074c-1.519-1.6-3.302-2.784-5.347-3.555c-2.045-0.77-4.263-1.154-6.653-1.154
		c-2.349,0-4.547,0.386-6.592,1.154c-2.046,0.771-3.828,1.955-5.347,3.555c-1.519,1.601-2.704,3.625-3.554,6.074
		c-0.851,2.451-1.276,5.357-1.276,8.72s0.425,6.269,1.276,8.719c0.851,2.451,2.035,4.476,3.554,6.075
		c1.519,1.601,3.301,2.785,5.347,3.555c2.045,0.77,4.243,1.154,6.592,1.154c2.391,0,4.607-0.385,6.653-1.154
		c2.045-0.77,3.828-1.954,5.347-3.555c1.52-1.6,2.704-3.624,3.554-6.075c0.852-2.45,1.276-5.356,1.276-8.719
		C422.667,239.795,422.242,236.889,421.392,234.438z"/>
	<path d="M494.452,238.175c2.854,5.429,5.842,10.996,8.961,16.707c0.404-0.769,0.992-1.872,1.762-3.312
		c0.771-1.438,1.66-3.088,2.674-4.951c1.013-1.862,2.097-3.878,3.25-6.045c1.154-2.166,2.328-4.364,3.523-6.592
		c1.195-2.229,2.379-4.416,3.555-6.562c1.174-2.146,2.269-4.15,3.281-6.016h0.789c0.445,3.889,0.859,7.646,1.246,11.271
		c0.385,3.626,0.778,7.19,1.184,10.693c0.404,3.504,0.812,6.967,1.217,10.39c0.404,3.424,0.851,6.814,1.337,10.176
		c-0.486-0.08-0.964-0.121-1.429-0.121c-0.467,0-0.94,0-1.428,0s-0.963,0-1.428,0c-0.467,0-0.941,0.041-1.429,0.121
		c-0.446-5.386-0.893-10.61-1.338-15.675c-0.444-5.062-0.991-10.227-1.639-15.493h-0.123c-2.795,5.104-5.539,10.178-8.231,15.221
		c-2.693,5.043-5.255,10.318-7.687,15.826h-0.547c-2.43-5.104-4.973-10.217-7.625-15.34c-2.652-5.125-5.316-10.359-7.988-15.707
		h-0.121c-0.285,2.514-0.6,5.236-0.942,8.172c-0.345,2.938-0.658,5.834-0.941,8.688s-0.526,5.55-0.729,8.08
		c-0.203,2.532-0.306,4.608-0.306,6.228c-0.647-0.08-1.356-0.121-2.125-0.121c-0.771,0-1.479,0.041-2.127,0.121
		c0.526-3.279,1.072-6.742,1.642-10.389c0.565-3.646,1.112-7.311,1.641-10.997c0.525-3.687,1.012-7.321,1.457-10.905
		s0.83-6.996,1.154-10.238h1.032C488.77,227.157,491.596,232.747,494.452,238.175z"/>
	<path d="M580.906,230.062c-0.103-2.571-0.213-5.193-0.334-7.867c0.973,0.082,1.953,0.152,2.947,0.213
		c0.991,0.061,1.975,0.091,2.944,0.091c0.486,0,1.074-0.021,1.763-0.062c0.688-0.039,1.389-0.069,2.098-0.09
		c0.707-0.021,1.387-0.052,2.035-0.093c0.646-0.04,1.192-0.062,1.641-0.062c0.607,0,1.355,0.021,2.248,0.062
		c0.889,0.041,1.832,0.163,2.824,0.365c0.992,0.203,1.975,0.507,2.947,0.911c0.971,0.404,1.854,0.992,2.643,1.762
		s1.428,1.73,1.914,2.887c0.486,1.154,0.729,2.581,0.729,4.282c0,2.674-0.575,4.841-1.729,6.501
		c-1.156,1.661-2.574,2.957-4.254,3.889c-1.683,0.934-3.463,1.561-5.347,1.885c-1.885,0.324-3.555,0.484-5.014,0.484
		c-0.932,0-1.783-0.009-2.551-0.029c-0.771-0.021-1.562-0.07-2.369-0.151v3.342c0,2.673,0.049,5.308,0.15,7.897
		c0.102,2.593,0.213,5.145,0.334,7.654c-0.933-0.08-1.925-0.121-2.978-0.121s-2.045,0.041-2.977,0.121
		c0.121-2.511,0.231-5.062,0.334-7.654c0.102-2.592,0.151-5.225,0.151-7.897v-10.45
		C581.059,235.258,581.008,232.636,580.906,230.062z M590.354,242.975c1.257,0,2.554-0.142,3.89-0.426
		c1.336-0.283,2.561-0.8,3.676-1.55c1.113-0.749,2.025-1.781,2.734-3.099c0.707-1.315,1.062-3.008,1.062-5.072
		c0-1.741-0.242-3.16-0.729-4.253c-0.486-1.095-1.164-1.944-2.035-2.552c-0.871-0.608-1.937-1.022-3.189-1.246
		c-1.256-0.223-2.674-0.334-4.254-0.334h-5.467v18.045C587.416,242.812,588.855,242.975,590.354,242.975z"/>
	<path d="M689.994,263.936c-0.568-0.082-1.104-0.121-1.609-0.121c-0.508,0-1.045,0-1.61,0c-0.566,0-1.104,0-1.609,0
		c-0.508,0-1.043,0.039-1.609,0.121c-0.284-0.932-0.67-2.056-1.153-3.371c-0.486-1.316-1.023-2.693-1.611-4.133
		c-0.588-1.438-1.184-2.896-1.791-4.373c-0.609-1.479-1.176-2.888-1.701-4.224c-1.297-0.04-2.613-0.069-3.949-0.092
		c-1.338-0.021-2.674-0.03-4.012-0.03c-1.256,0-2.49,0.012-3.705,0.03c-1.215,0.021-2.451,0.052-3.707,0.092
		c-1.297,3.159-2.471,6.166-3.522,9.021c-1.054,2.856-1.845,5.217-2.369,7.078c-0.689-0.08-1.438-0.121-2.248-0.121
		c-0.811,0-1.562,0.041-2.248,0.121c3.281-7.086,6.479-14.135,9.6-21.143c3.119-7.007,6.258-14.136,9.418-21.387h1.154
		c0.971,2.35,2.023,4.892,3.158,7.625c1.135,2.734,2.289,5.498,3.463,8.293c1.176,2.795,2.35,5.57,3.525,8.324
		c1.174,2.754,2.276,5.315,3.311,7.686s1.965,4.486,2.795,6.35C688.789,261.546,689.467,262.963,689.994,263.936z M663.078,245.04
		c1.053,0,2.146,0.021,3.281,0.062c1.135,0.041,2.229,0.061,3.28,0.061c1.134,0,2.269-0.01,3.402-0.03
		c1.133-0.021,2.268-0.05,3.402-0.091l-6.744-15.434L663.078,245.04z"/>
	<path d="M761.262,248.169c-5.266-5.649-10.53-11.271-15.797-16.86c-0.041,1.135-0.082,2.653-0.121,4.558
		c-0.041,1.903-0.061,4.495-0.061,7.776c0,0.852,0.01,1.904,0.029,3.159c0.02,1.257,0.041,2.572,0.061,3.949
		c0.021,1.377,0.051,2.774,0.092,4.192c0.039,1.418,0.08,2.732,0.121,3.949c0.041,1.215,0.082,2.277,0.121,3.188
		c0.041,0.911,0.082,1.528,0.123,1.853c-0.648-0.08-1.357-0.121-2.127-0.121c-0.812,0-1.562,0.041-2.248,0.121
		c0.08-0.404,0.172-1.154,0.272-2.248c0.101-1.093,0.191-2.398,0.273-3.918c0.08-1.52,0.172-3.168,0.273-4.951
		c0.1-1.781,0.182-3.563,0.241-5.348c0.062-1.781,0.111-3.522,0.152-5.225c0.039-1.701,0.061-3.221,0.061-4.557
		c0-3.89-0.01-7.23-0.028-10.025c-0.021-2.794-0.072-4.88-0.152-6.258h0.974c2.469,2.674,5.11,5.539,7.928,8.598
		c2.813,3.059,5.608,6.075,8.385,9.053c2.773,2.978,5.406,5.793,7.898,8.444c2.489,2.653,4.668,4.912,6.53,6.774v-8.264
		c0-4.253-0.03-8.394-0.092-12.425c-0.061-4.028-0.192-7.827-0.395-11.392c0.811,0.203,1.498,0.304,2.065,0.304
		c0.484,0,1.133-0.101,1.943-0.304c-0.082,0.892-0.172,2.229-0.273,4.01c-0.102,1.783-0.203,3.688-0.303,5.711
		c-0.104,2.025-0.193,4.011-0.273,5.954c-0.082,1.944-0.123,3.504-0.123,4.679c0,1.014,0,2.229,0,3.646
		c0,1.377,0.011,2.814,0.031,4.312c0.021,1.499,0.039,3.008,0.062,4.526c0.02,1.519,0.039,2.938,0.061,4.253
		c0.021,1.316,0.031,2.461,0.031,3.433c0,0.892,0,1.56,0,2.005h-0.853C771.488,259.339,766.525,253.818,761.262,248.169z"/>
	<path d="M834.018,230.062c-0.102-2.571-0.213-5.193-0.334-7.867c0.525,0.082,1.033,0.152,1.521,0.213
		c0.484,0.061,0.971,0.091,1.457,0.091c0.485,0,0.973-0.03,1.459-0.091c0.485-0.061,0.992-0.131,1.518-0.213
		c-0.121,2.674-0.231,5.296-0.334,7.867c-0.102,2.572-0.149,5.194-0.149,7.869v10.449c0,2.674,0.049,5.307,0.149,7.896
		c0.103,2.594,0.213,5.146,0.334,7.656c-0.932-0.082-1.924-0.121-2.977-0.121s-2.045,0.039-2.978,0.121
		c0.121-2.512,0.232-5.062,0.334-7.656c0.103-2.59,0.152-5.225,0.152-7.896v-10.449C834.17,235.258,834.119,232.636,834.018,230.062
		z"/>
	<path d="M895.867,229.973c-0.103-2.592-0.211-5.185-0.334-7.776c1.824,0.081,3.635,0.151,5.438,0.213
		c1.804,0.062,3.615,0.091,5.439,0.091c1.822,0,3.623-0.029,5.406-0.091c1.78-0.062,3.584-0.132,5.407-0.213
		c-0.122,0.606-0.184,1.215-0.184,1.823c0,0.606,0.061,1.215,0.184,1.821c-1.297-0.081-2.481-0.161-3.555-0.243
		c-1.074-0.08-2.209-0.16-3.401-0.242c-1.195-0.08-2.503-0.151-3.921-0.213s-3.118-0.092-5.104-0.092
		c-0.039,1.297-0.09,2.532-0.15,3.706c-0.061,1.177-0.092,2.513-0.092,4.011c0,1.58,0.01,3.119,0.031,4.617
		c0.02,1.499,0.029,2.633,0.029,3.402c1.78,0,3.381-0.021,4.801-0.061c1.416-0.041,2.713-0.093,3.887-0.152
		c1.176-0.061,2.258-0.121,3.252-0.184c0.992-0.061,1.935-0.131,2.824-0.211c-0.121,0.606-0.182,1.234-0.182,1.883
		c0,0.606,0.061,1.215,0.182,1.822c-1.053-0.121-2.277-0.223-3.676-0.304c-1.396-0.081-2.795-0.132-4.191-0.151
		c-1.397-0.021-2.715-0.041-3.949-0.062c-1.235-0.021-2.219-0.03-2.946-0.03c0,0.364-0.011,0.76-0.029,1.186
		c-0.021,0.425-0.031,0.963-0.031,1.609v2.369v3.646c0,2.309,0.01,4.213,0.031,5.711c0.02,1.498,0.049,2.634,0.09,3.402
		c1.338,0,2.754,0,4.254,0c1.539,0,3.047-0.031,4.525-0.092c1.479-0.062,2.877-0.143,4.193-0.243
		c1.313-0.101,2.461-0.253,3.432-0.456c-0.082,0.284-0.131,0.6-0.152,0.942c-0.02,0.344-0.028,0.657-0.028,0.94
		c0,0.648,0.061,1.176,0.182,1.58c-1.822-0.082-3.635-0.121-5.438-0.121c-1.803,0-3.635,0-5.498,0c-1.862,0-3.706,0-5.528,0
		s-3.666,0.039-5.529,0.121c0.123-2.592,0.232-5.175,0.334-7.746c0.103-2.571,0.152-5.194,0.152-7.869v-10.449
		C896.02,235.197,895.969,232.564,895.867,229.973z"/>
	<path d="M971.326,258.254c0.547,0.75,1.215,1.428,2.006,2.036c0.789,0.606,1.711,1.104,2.764,1.487
		c1.053,0.385,2.228,0.578,3.523,0.578c1.338,0,2.541-0.232,3.615-0.699c1.071-0.465,1.983-1.094,2.733-1.883
		c0.75-0.791,1.326-1.723,1.732-2.795c0.403-1.074,0.606-2.219,0.606-3.434c0-1.863-0.477-3.342-1.428-4.436
		c-0.953-1.094-2.137-2.006-3.555-2.734s-2.947-1.396-4.588-2.005c-1.642-0.606-3.17-1.366-4.586-2.278
		c-1.418-0.91-2.604-2.074-3.556-3.492c-0.953-1.418-1.428-3.32-1.428-5.711c0-1.701,0.303-3.252,0.912-4.648
		c0.606-1.396,1.487-2.602,2.643-3.614c1.155-1.012,2.541-1.802,4.162-2.37c1.619-0.566,3.441-0.851,5.467-0.851
		c1.945,0,3.625,0.233,5.044,0.698c1.418,0.467,2.733,1.186,3.948,2.156c-0.364,0.689-0.668,1.42-0.912,2.188
		c-0.241,0.77-0.483,1.741-0.729,2.916h-0.729c-0.203-0.566-0.477-1.185-0.819-1.853c-0.347-0.669-0.812-1.285-1.398-1.854
		c-0.586-0.566-1.285-1.042-2.096-1.429c-0.812-0.383-1.783-0.576-2.916-0.576c-1.136,0-2.179,0.183-3.129,0.547
		c-0.951,0.363-1.783,0.881-2.49,1.55c-0.709,0.668-1.256,1.468-1.642,2.399c-0.387,0.933-0.577,1.943-0.577,3.037
		c0,1.904,0.477,3.402,1.428,4.496s2.137,2.016,3.555,2.765c1.418,0.75,2.947,1.419,4.588,2.006
		c1.642,0.587,3.168,1.306,4.586,2.155c1.418,0.851,2.604,1.945,3.556,3.281s1.428,3.119,1.428,5.348
		c0,1.863-0.334,3.625-1.002,5.285s-1.641,3.108-2.916,4.345c-1.277,1.235-2.836,2.187-4.68,2.854
		c-1.845,0.668-3.939,1.002-6.287,1.002c-2.513,0-4.547-0.334-6.107-1.002c-1.559-0.668-2.865-1.428-3.918-2.277
		c0.365-0.932,0.617-1.771,0.76-2.521c0.142-0.749,0.273-1.711,0.396-2.886h0.729C970.344,256.766,970.779,257.505,971.326,258.254z
		"/>
</g>
<g>
	<path fill="#FFFFFF" d="M147.267,268.986l-0.149-0.211c-2.71-3.819-26.737-38.683-35.892-85.838
		c-5.071-26.123-4.705-51.379,1.088-75.07c7.132-29.167,22.572-56.125,45.89-80.126l0.147-0.151h28.408l-1.041,0.882
		c-8.652,7.325-37.915,34.542-51.229,77.199c-16.168,51.799-3.62,106.479,37.294,162.521l0.581,0.795H147.267L147.267,268.986z"/>
	<path fill="#FFFFFF" d="M185.395,28.09c-21.676,18.353-110.675,108-14.016,240.396h-23.854
		c-8.729-12.307-90.44-135.946,11.037-240.396H185.395 M188.123,27.09h-2.729h-26.833h-0.423l-0.294,0.303
		c-23.38,24.065-38.863,51.101-46.017,80.355c-5.811,23.762-6.179,49.091-1.093,75.284c9.175,47.259,33.259,82.202,35.975,86.03
		l0.299,0.422h0.517h23.854h1.968l-1.161-1.59C131.37,211.99,118.847,157.46,134.965,105.82
		c13.274-42.529,42.45-69.664,51.075-76.967L188.123,27.09L188.123,27.09z"/>
</g>
<path fill="#FFFFFF" d="M248.5,77.257c-129.681,5.122-110.763,103.272-110.763,103.272C240.613,202.211,248.5,77.257,248.5,77.257z"
	/>
<path fill="#FFFFFF" d="M98.785,121.016c0,0,32.702-59.337-38.252-93.987H39.731C37.204,44.61,32.15,111.326,98.785,121.016z"/>
<path fill="#FFFFFF" d="M37.621,198.664c0,0,33.501,57.941,79.622,28.773C117.243,227.438,105.417,178.164,37.621,198.664z"/>
<path fill="#005185" stroke="#FFFFFF" stroke-width="4" d="M158.562,29.023L158.562,29.023l-97.311-0.001
	c0.001,0,0.001,0.001,0.001,0.001c70.955,34.201,38.253,92.774,38.253,92.774c-66.635-9.565-61.582-75.42-59.054-92.774v-0.001
	H21.196v238.386h126.333c-0.002-0.002-0.004-0.004-0.004-0.006C138.796,255.096,57.085,133.474,158.562,29.023z M117.243,227.438
	c-46.121,29.168-79.622-28.772-79.622-28.772C105.417,178.164,117.243,227.438,117.243,227.438z"/>
<path fill="#A5B971" stroke="#FFFFFF" stroke-width="4" d="M185.396,29.022c0,0,0,0.001-0.002,0.001
	c-21.676,18.353-110.675,105.991-14.016,238.379c0.002,0.002,0.002,0.004,0.004,0.006h45.635c0.045,0,0.091-0.006,0.14-0.006
	c1.45-0.004,2.88-0.078,4.29-0.227c21.426-2.214,38.136-20.324,38.136-42.332V29.022H185.396z M137.737,180.529
	c0,0-18.918-98.15,110.763-103.272C248.5,77.257,240.613,202.211,137.737,180.529z"/>
<g>
	<path d="M983.68,12.08v1.025h-2.9v7.582h-1.178v-7.582h-2.9V12.08H983.68z"/>
	<path d="M984.723,12.08h1.671l2.475,7.277l2.457-7.277h1.659v8.607h-1.113v-5.08c0-0.176,0.004-0.467,0.012-0.873
		s0.012-0.842,0.012-1.307l-2.457,7.26h-1.156l-2.48-7.26v0.264c0,0.211,0.006,0.532,0.018,0.964s0.018,0.749,0.018,0.952v5.08
		h-1.113V12.08z"/>
</g>
</svg>
