<?xml version="1.0" encoding="utf-8"?>
<!-- Generator: Adobe Illustrator 16.2.1, SVG Export Plug-In . SVG Version: 6.00 Build 0)  -->
<!DOCTYPE svg PUBLIC "-//W3C//DTD SVG 1.1//EN" "http://www.w3.org/Graphics/SVG/1.1/DTD/svg11.dtd">
<svg version="1.1" xmlns="http://www.w3.org/2000/svg" xmlns:xlink="http://www.w3.org/1999/xlink" x="0px" y="0px" width="400px"
	 height="400px" viewBox="0 0 400 400" enable-background="new 0 0 400 400" xml:space="preserve">
<g id="Layer_1">
	<g>
		<polygon fill="#FFFFFF" points="388,391.005 386.973,395 12.962,395 9,391.005 9,6.995 12,6 84.667,6 86.428,7.745 88.75,16 
			386.973,16 388,17.995 		"/>
		<g>
			<path fill="#D1D1D1" d="M370,84c0,1.104-0.896,2-2,2H32c-1.104,0-2-0.896-2-2V48c0-1.104,0.896-2,2-2h336c1.104,0,2,0.896,2,2V84
				z"/>
			<g>
				<circle fill="#D1D1D1" cx="55" cy="131.333" r="25"/>
				<circle fill="#D1D1D1" cx="345" cy="131.333" r="25"/>
				<circle fill="#D1D1D1" cx="200" cy="131.333" r="25"/>
				<circle fill="#D1D1D1" cx="272.5" cy="131.333" r="25"/>
				<circle fill="#D1D1D1" cx="127.5" cy="131.333" r="25"/>
			</g>
			<g>
				<path fill="#D1D1D1" d="M283,216c0,1.104,0.123,3-0.137,3h-79.059c-0.26,0-0.804-1.896-0.804-3v-36c0-1.104,0.544-1,0.804-1
					h79.059c0.26,0,0.137-0.104,0.137,1V216z"/>
				<path fill="#D1D1D1" d="M370,216c0,1.104-0.211,3-0.471,3h-79.059c-0.26,0-0.471-1.896-0.471-3v-36c0-1.104,0.211-1,0.471-1
					h79.059c0.26,0,0.471-0.104,0.471,1V216z"/>
				<path fill="#D1D1D1" d="M197,216c0,1.104-0.544,3-0.804,3h-79.059c-0.26,0-0.137-1.896-0.137-3v-36c0-1.104-0.123-1,0.137-1
					h79.059c0.26,0,0.804-0.104,0.804,1V216z"/>
				<path fill="#D1D1D1" d="M110,216c0,1.104-0.211,3-0.471,3H30.471c-0.26,0-0.471-1.896-0.471-3v-36c0-1.104,0.211-1,0.471-1
					h79.059c0.26,0,0.471-0.104,0.471,1V216z"/>
			</g>
			<path fill="#D1D1D1" d="M370,373c0,1.104-0.896,2-2,2H32c-1.104,0-2-0.896-2-2V247c0-1.104,0.896-2,2-2h336c1.104,0,2,0.896,2,2
				V373z"/>
		</g>
		<path fill="#C1C1C1" d="M32,375c0,0-2,0-2-2c0-3.375,0-124,0-126s2-2,2-2V375z"/>
		<rect x="67" y="245" fill="#C1C1C1" width="2" height="130"/>
		<rect x="105" y="245" fill="#C1C1C1" width="2" height="130"/>
		<rect x="143" y="245" fill="#C1C1C1" width="2" height="130"/>
		<rect x="181" y="245" fill="#C1C1C1" width="2" height="130"/>
		<rect x="218" y="245" fill="#C1C1C1" width="2" height="130"/>
		<rect x="256" y="245" fill="#C1C1C1" width="2" height="130"/>
		<rect x="294" y="245" fill="#C1C1C1" width="2" height="130"/>
		<rect x="332" y="245" fill="#C1C1C1" width="2" height="130"/>
		<path fill="#C1C1C1" d="M370,373c0,0-0.084,2-2,2s-336,0-336,0l-1-2H370z"/>
		<rect x="31" y="335" fill="#C1C1C1" width="339" height="2"/>
		<rect x="31" y="297" fill="#C1C1C1" width="339" height="2"/>
		<rect x="31" y="260" fill="#C1C1C1" width="339" height="2"/>
	</g>
	<g>
		<circle fill="#FFFFFF" cx="353.5" cy="296" r="8"/>
		<circle fill="#FFFFFF" cx="285.5" cy="265" r="8"/>
		<circle fill="#FFFFFF" cx="199.5" cy="285" r="8"/>
		<circle fill="#FFFFFF" cx="114.5" cy="329" r="8"/>
		<circle fill="#FFFFFF" cx="45.5" cy="320" r="8"/>
		<polyline fill="none" stroke="#FFFFFF" stroke-width="4" stroke-miterlimit="10" points="371,282.5 353.5,296 285.5,265 
			199.5,285 114.5,329 44.5,318 24.5,333 		"/>
	</g>
	<circle fill="#A5A5A5" cx="18.625" cy="13.417" r="4"/>
	<circle fill="#A5A5A5" cx="30.625" cy="13.417" r="4"/>
	<circle fill="#A5A5A5" cx="42.625" cy="13.417" r="4"/>
	<polygon fill="#FFFFFF" points="120.922,130.103 147.305,126.429 123.215,137.8 	"/>
	<polygon fill="#FFFFFF" points="47.463,134.245 66.115,117.193 54.077,139.413 	"/>
	<polygon fill="#FFFFFF" points="199.875,139.126 190.03,115.255 206.376,135.242 	"/>
	<polygon fill="#FFFFFF" points="268.752,127.083 290.515,140.857 265.512,134.676 	"/>
	<polygon fill="#FFFFFF" points="350.317,136.839 326.569,128.986 351.579,129.395 	"/>
	<path fill="#A5A5A5" d="M54,206c0,1.104-0.896,2-2,2H42c-1.104,0-2-0.896-2-2v-12c0-1.104,0.896-2,2-2h10c1.104,0,2,0.896,2,2V206z
		"/>
	<path fill="#A5A5A5" d="M99,206c0,1.104-0.896,2-2,2H65c-1.104,0-2-0.896-2-2v-12c0-1.104,0.896-2,2-2h32c1.104,0,2,0.896,2,2V206z
		"/>
	<path fill="#A5A5A5" d="M186,206c0,1.104-0.896,2-2,2h-54c-1.104,0-2-0.896-2-2v-12c0-1.104,0.896-2,2-2h54c1.104,0,2,0.896,2,2
		V206z"/>
	<path fill="#A5A5A5" d="M261,206c0,1.104-0.896,2-2,2h-43c-1.104,0-2-0.896-2-2v-12c0-1.104,0.896-2,2-2h43c1.104,0,2,0.896,2,2
		V206z"/>
	<path fill="#A5A5A5" d="M337,206c0,1.104-0.896,2-2,2h-32c-1.104,0-2-0.896-2-2v-12c0-1.104,0.896-2,2-2h32c1.104,0,2,0.896,2,2
		V206z"/>
	<path fill="#A5A5A5" d="M359,206c0,1.104-0.896,2-2,2h-10c-1.104,0-2-0.896-2-2v-12c0-1.104,0.896-2,2-2h10c1.104,0,2,0.896,2,2
		V206z"/>
	<path fill="#A5A5A5" d="M58,72c0,1.104-0.896,2-2,2H46c-1.104,0-2-0.896-2-2V60c0-1.104,0.896-2,2-2h10c1.104,0,2,0.896,2,2V72z"/>
	<path fill="#A5A5A5" d="M101,72c0,1.104-0.896,2-2,2H67c-1.104,0-2-0.896-2-2V60c0-1.104,0.896-2,2-2h32c1.104,0,2,0.896,2,2V72z"
		/>
	<path fill="#A5A5A5" d="M355,72c0,1.104-0.896,2-2,2h-32c-1.104,0-2-0.896-2-2V60c0-1.104,0.896-2,2-2h32c1.104,0,2,0.896,2,2V72z"
		/>
	<path fill="#A5A5A5" d="M168,72c0,1.104-0.896,2-2,2h-54c-1.104,0-2-0.896-2-2V60c0-1.104,0.896-2,2-2h54c1.104,0,2,0.896,2,2V72z"
		/>
	<path fill="#A5A5A5" d="M246,72c0,1.104-0.896,2-2,2h-43c-1.104,0-2-0.896-2-2V60c0-1.104,0.896-2,2-2h43c1.104,0,2,0.896,2,2V72z"
		/>
	<path fill="#A5A5A5" d="M289,72c0,1.104-0.896,2-2,2h-32c-1.104,0-2-0.896-2-2V60c0-1.104,0.896-2,2-2h32c1.104,0,2,0.896,2,2V72z"
		/>
	<path fill="#A5A5A5" d="M190,72c0,1.104-0.896,2-2,2h-10c-1.104,0-2-0.896-2-2V60c0-1.104,0.896-2,2-2h10c1.104,0,2,0.896,2,2V72z"
		/>
	<path fill="#A5A5A5" d="M311,72c0,1.104-0.896,2-2,2h-10c-1.104,0-2-0.896-2-2V60c0-1.104,0.896-2,2-2h10c1.104,0,2,0.896,2,2V72z"
		/>
</g>
<g id="Layer_2">
</g>
</svg>
