<?xml version="1.0" encoding="utf-8"?>
<!-- Generator: Adobe Illustrator 16.2.1, SVG Export Plug-In . SVG Version: 6.00 Build 0)  -->
<!DOCTYPE svg PUBLIC "-//W3C//DTD SVG 1.1//EN" "http://www.w3.org/Graphics/SVG/1.1/DTD/svg11.dtd">
<svg version="1.1" id="Layer_1" xmlns="http://www.w3.org/2000/svg" xmlns:xlink="http://www.w3.org/1999/xlink" x="0px" y="0px"
	 width="900px" height="265px" viewBox="0 0 900 265" enable-background="new 0 0 900 265" xml:space="preserve">
<polygon fill="#D32929" points="0,0 0,276.489 900,277.5 900,0 "/>
<polygon fill="#E53C3C" points="-53.952,96.184 93.017,96.184 -20.201,-17.034 -53.952,-17.034 "/>
<polygon fill="#E53C3C" points="-53.952,111.13 -53.952,261.837 96.76,111.13 "/>
<path fill="#E53C3C" d="M104.674,282.536V124.343L-43.434,272.431c3.75,3.52,7.591,6.883,11.51,10.105H104.674z"/>
<polygon fill="#E53C3C" points="0.953,-17.034 104.674,86.687 104.674,-17.034 "/>
<polygon fill="#E53C3C" points="118.726,-17.034 118.726,92.441 228.226,-17.034 "/>
<g>
	
		<image overflow="visible" opacity="0.3" width="323" height="226" xlink:href="6F329332B6A70E7E.png"  transform="matrix(1 0 0 1 7.8164 0.8418)">
	</image>
	<g>
		<path fill="#FFFFFF" d="M58.097,175.928c-2.238,0-4.058-1.82-4.058-4.059v-71.091c0-33.619,23.306-57.099,56.674-57.099
			l168.739,0.084c2.237,0,4.057,1.821,4.057,4.058l-0.02,124.048c0,2.238-1.821,4.059-4.059,4.059H58.097z"/>
		<g>
			<path fill="#ED3E3E" d="M110.713,45.378h-0.001l168.741,0.084c1.3,0,2.357,1.058,2.357,2.359l-0.02,124.048
				c0,1.302-1.059,2.36-2.36,2.36H58.097c-1.301,0-2.359-1.059-2.359-2.36v-71.091C55.738,68.159,78.345,45.378,110.713,45.378
				 M110.713,41.981c-33.796,0-58.373,23.763-58.373,58.797v71.091c0,3.18,2.576,5.757,5.756,5.757H279.43
				c3.18,0,5.757-2.577,5.757-5.757l0.02-124.048c0-3.178-2.576-5.756-5.754-5.756L110.713,41.981L110.713,41.981z"/>
		</g>
	</g>
</g>
<g>
	<g>
		<path fill="#4A4A4B" d="M147.634,137.462c-1.461,2.455-3.373,4.227-5.741,5.305c-2.368,1.082-5.041,1.621-8.024,1.621
			c-3.391,0-6.371-0.656-8.943-1.969c-2.57-1.316-4.689-3.102-6.357-5.352c-1.666-2.246-2.924-4.836-3.768-7.758
			c-0.85-2.922-1.275-5.963-1.275-9.123c0-3.035,0.426-5.975,1.275-8.811c0.844-2.832,2.102-5.334,3.768-7.496
			c1.668-2.164,3.757-3.902,6.271-5.219c2.512-1.316,5.436-1.975,8.769-1.975c2.688,0,5.245,0.574,7.669,1.711
			c2.428,1.143,4.342,2.824,5.746,5.045h0.174V77.913l12.451,4.551v60.787h-11.835v-5.789H147.634z M147.109,115.058
			c-0.351-1.721-0.951-3.244-1.798-4.557c-0.848-1.316-1.943-2.383-3.287-3.201c-1.346-0.816-3.041-1.229-5.088-1.229
			s-3.769,0.412-5.172,1.229c-1.401,0.818-2.529,1.898-3.377,3.244c-0.847,1.346-1.46,2.879-1.84,4.604
			c-0.381,1.723-0.572,3.523-0.572,5.393c0,1.754,0.207,3.508,0.616,5.262c0.407,1.754,1.065,3.316,1.973,4.688
			c0.907,1.377,2.045,2.488,3.421,3.334c1.371,0.85,3.023,1.27,4.951,1.27c2.047,0,3.758-0.404,5.131-1.223
			c1.373-0.82,2.469-1.916,3.288-3.291c0.817-1.373,1.403-2.939,1.754-4.693c0.351-1.75,0.524-3.562,0.524-5.436
			C147.634,118.583,147.46,116.782,147.109,115.058z"/>
		<path fill="#4A4A4B" d="M181.132,97.919v45.332h-12.451V97.919H181.132z"/>
		<path fill="#4A4A4B" d="M187.968,148.86c1.287,0,2.412-0.246,3.377-0.742c0.963-0.498,1.447-1.594,1.447-3.291V97.919h12.451
			v47.523c0,2.336-0.25,4.357-0.744,6.051c-0.498,1.693-1.346,3.113-2.543,4.25c-1.201,1.145-2.823,1.988-4.868,2.545
			s-4.647,0.832-7.804,0.832c-1.461,0-2.777-0.119-3.945-0.348v-10.26C185.983,148.745,186.86,148.86,187.968,148.86z"/>
		<path fill="#4A4A4B" d="M213.224,148.86c1.283,0,2.412-0.246,3.375-0.742c0.965-0.498,1.444-1.594,1.444-3.291V97.919h12.453
			v47.523c0,2.336-0.249,4.357-0.745,6.051c-0.498,1.693-1.347,3.113-2.545,4.25c-1.197,1.145-2.819,1.988-4.865,2.545
			c-2.047,0.557-4.646,0.832-7.804,0.832c-1.463,0-2.775-0.119-3.944-0.348v-10.26C211.235,148.745,212.112,148.86,213.224,148.86z"
			/>
		<path fill="#4A4A4B" d="M255.224,97.919v45.332h-12.451V97.919H255.224z"/>
		<polygon fill="#4A4A4B" points="169.037,94.542 169.037,85.399 181.132,88.13 181.132,94.542 		"/>
		<polygon fill="#4A4A4B" points="193.149,94.542 193.149,89.038 205.243,89.952 205.243,94.542 		"/>
		<polygon fill="#4A4A4B" points="218.401,94.542 218.401,89.952 230.496,89.038 230.496,94.542 		"/>
		<polygon fill="#4A4A4B" points="243.132,94.542 243.132,87.222 255.226,83.577 255.226,94.542 		"/>
		<path fill="#8F9092" d="M107.405,101.001L81.048,74.644c-6.855,7.473-10.431,16.875-10.732,26.357H107.405z"/>
		<path fill="#606364" d="M70.32,103.647c0.313,9.627,3.987,19.168,11.054,26.693l26.694-26.693H70.32z"/>
		<path fill="#434646" d="M109.47,105.987L83.243,132.21c7.406,6.951,16.757,10.625,26.227,11.041V105.987z"/>
		<path fill="#BFBFC1" d="M109.47,61.394c-9.614,0.422-19.109,4.205-26.566,11.359l26.566,26.566V61.394z"/>
		<path fill="#E6E7E8" d="M112.115,99.595l27.17-27.164c-7.652-7.178-17.382-10.857-27.17-11.061V99.595z"/>
	</g>
</g>
<g>
	
		<image overflow="visible" opacity="0.8" width="540" height="76" xlink:href="6F329332B6A70E79.png"  transform="matrix(1 0 0 1 303 74)">
	</image>
	<g>
		<text transform="matrix(1 0 0 1 309.2925 109.3325)"><tspan x="0" y="0" fill="#FFFFFF" font-family="'Helvetica-Light'" font-size="37.434">Specialized Retail Suite</tspan><tspan x="0" y="24" fill="#FFFFFF" font-family="'Helvetica-Light'" font-size="20">Cloud Based Enterprise Solutions For Retailers &amp; Suppliers</tspan></text>
	</g>
</g>
<rect y="221" fill="#FFFFFF" width="900" height="57"/>
</svg>
