<?xml version="1.0" encoding="utf-8"?>
<!-- Generator: Adobe Illustrator 16.2.1, SVG Export Plug-In . SVG Version: 6.00 Build 0)  -->
<!DOCTYPE svg PUBLIC "-//W3C//DTD SVG 1.1//EN" "http://www.w3.org/Graphics/SVG/1.1/DTD/svg11.dtd">
<svg version="1.1" id="Layer_1" xmlns="http://www.w3.org/2000/svg" xmlns:xlink="http://www.w3.org/1999/xlink" x="0px" y="0px"
	 width="800px" height="800px" viewBox="0 0 800 800" enable-background="new 0 0 800 800" xml:space="preserve">
<g>
	<g>
		<path fill="#454545" d="M780.268,583.261V220.344c0-0.686,0.127-1.28,0.192-1.924V106.998c0-16.845-13.654-30.497-30.499-30.497
			H62.728c-16.838,0-30.497,13.652-30.497,30.497v504.214c0,16.847,13.658,30.497,30.497,30.497h687.233
			c16.845,0,30.499-13.65,30.499-30.497v-26.029C780.395,584.539,780.268,583.943,780.268,583.261z"/>
		<path fill="#FFFFFE" d="M607.48,326.76c0-55.838,46.595-102.434,102.434-102.434c16.087,0,31.403,3.874,45.062,10.715V118.685
			c0-10.102-8.189-18.297-18.299-18.297H76.011c-10.101,0-18.298,8.195-18.298,18.297v239.914h554.981
			C609.319,348.542,607.48,337.834,607.48,326.76z"/>
		<g>
			<path fill="#FFFFFF" d="M153.49,497.977v-10.044c0-9.616-5.77-17.951-23.507-17.951c-19.447,0-31.2,8.976-33.337,8.976
				c-2.992,0-7.479-8.334-7.479-10.685c0-5.556,18.806-13.677,40.176-13.677c26.499,0,42.099,12.395,42.099,33.551v47.869
				c0,17.523,2.564,25.857,2.564,26.926c0,4.06-8.762,4.915-11.54,4.915c-5.129,0-6.197-8.976-7.479-14.959
				c-8.121,8.975-19.874,16.027-35.902,16.027c-20.729,0-36.542-10.044-36.542-32.055
				C82.542,500.755,120.794,498.404,153.49,497.977z M119.939,553.325c15.6,0,25.003-7.052,33.551-14.745v-25.217
				c-22.225,0.214-51.715,0.214-51.715,22.438C101.774,547.127,107.972,553.325,119.939,553.325z"/>
			<path fill="#FFFFFF" d="M239.613,454.596c16.455,0,32.055,4.701,32.055,9.83c0,3.419-4.06,11.54-6.838,11.54
				c-0.427,0-1.068-0.427-2.351-0.854c-3.847-1.709-11.753-5.129-23.293-5.129c-18.805,0-30.986,11.112-30.986,40.816
				c0,29.918,8.976,42.74,33.124,42.74c11.967,0,20.301-3.633,24.148-5.556c1.282-0.428,2.137-0.855,2.351-0.855
				c2.992,0,7.266,7.907,7.266,10.898c0,4.916-14.959,10.899-33.551,10.899c-34.62,0-52.57-16.455-52.57-57.699
				C188.966,466.563,215.038,454.596,239.613,454.596z"/>
			<path fill="#FFFFFF" d="M290.473,411.642c0-2.992,2.564-4.702,8.548-4.702h0.854c5.984,0,8.548,1.71,8.548,4.702v57.699
				c7.479-7.479,19.019-14.745,32.696-14.745s33.978,5.556,33.978,34.619v74.154c0,2.992-2.564,4.701-8.548,4.701h-0.855
				c-5.983,0-8.548-1.709-8.548-4.701v-72.444c0-12.608-7.266-20.729-21.797-20.729c-16.027,0-26.926,14.959-26.926,14.959v78.214
				c0,2.992-2.564,4.701-8.548,4.701h-0.854c-5.984,0-8.548-1.709-8.548-4.701V411.642z"/>
			<path fill="#FFFFFF" d="M399.46,424.25v-12.608c0-2.992,2.564-4.702,8.548-4.702h2.564c5.984,0,8.548,1.71,8.548,4.702v12.608
				c0,2.992-2.564,4.701-8.548,4.701h-2.564C402.024,428.952,399.46,427.242,399.46,424.25z M400.315,460.152
				c0-2.992,2.564-4.702,8.548-4.702h0.855c5.983,0,8.548,1.71,8.548,4.702v103.217c0,2.992-2.564,4.701-8.548,4.701h-0.855
				c-5.983,0-8.548-1.709-8.548-4.701V460.152z"/>
			<path fill="#FFFFFF" d="M488.36,454.596c29.276,0,44.022,19.447,44.022,55.775c0,2.564-4.488,8.762-7.053,8.762h-67.529
				c1.709,23.721,11.753,34.406,32.91,34.406c18.592,0,29.062-8.976,31.2-8.976c2.991,0,7.479,8.334,7.479,10.685
				c0,5.129-16.883,13.677-38.466,13.677c-35.474,0-52.356-18.165-52.356-56.417C438.568,474.684,455.665,454.596,488.36,454.596z
				 M513.363,503.747c0-22.438-8.548-33.765-25.645-33.765c-18.592,0-28.422,11.326-29.917,33.765H513.363z"/>
			<path fill="#FFFFFF" d="M536.442,461.861c-0.214-0.641-0.642-1.923-0.642-2.778c0-2.137,2.778-3.633,9.189-3.633h1.71
				c4.273,0,7.692,0.855,8.548,3.419l28.636,86.548l28.636-86.548c0.854-2.564,4.273-3.419,8.762-3.419
				c6.41,0,9.188,1.282,9.188,3.633c0,0.854-0.214,1.709-0.641,2.992l-34.406,102.576c-0.854,2.564-4.273,3.419-8.548,3.419h-7.479
				c-4.273,0-7.692-0.854-8.548-3.419L536.442,461.861z"/>
			<path fill="#FFFFFF" d="M685.818,454.596c29.276,0,44.021,19.447,44.021,55.775c0,2.564-4.487,8.762-7.052,8.762h-67.529
				c1.71,23.721,11.754,34.406,32.91,34.406c18.592,0,29.062-8.976,31.2-8.976c2.991,0,7.479,8.334,7.479,10.685
				c0,5.129-16.882,13.677-38.466,13.677c-35.474,0-52.355-18.165-52.355-56.417C636.026,474.684,653.122,454.596,685.818,454.596z
				 M710.82,503.747c0-22.438-8.548-33.765-25.644-33.765c-18.592,0-28.422,11.326-29.918,33.765H710.82z"/>
		</g>
		<g>
			<path fill="#6CBE45" d="M182.982,155.776c39.444,0,54.267,29.897,54.267,64.819c0,4.271-9.547,14.823-12.813,14.823h-64.065
				c1.758,20.099,12.562,26.38,28.892,26.38c15.828,0,26.882-7.788,30.399-7.788c5.527,0,13.064,14.069,13.064,19.094
				c0,12.562-31.153,18.089-45.223,18.089c-45.474,0-65.573-26.38-65.573-66.829C121.932,174.87,147.056,155.776,182.982,155.776z
				 M201.072,210.546c0-14.572-5.527-25.375-18.089-25.375c-10.552,0-19.596,6.03-22.611,25.375H201.072z"/>
			<path fill="#6CBE45" d="M316.89,207.782v-8.291c0-9.547-5.778-14.32-19.597-14.32c-18.34,0-29.143,8.04-32.158,8.04
				c-5.276,0-13.064-14.823-13.064-20.099c0-8.542,20.099-17.335,47.986-17.335c39.695,0,54.016,17.586,54.016,41.957v47.232
				c0,25.877,3.015,31.153,3.015,36.43c0,6.029-21.857,8.04-28.139,8.04c-8.04,0-8.542-10.552-10.049-17.335
				c-1.759,3.266-13.818,19.094-36.932,19.094c-27.133,0-37.183-16.079-37.183-36.68
				C244.785,233.911,253.076,207.782,316.89,207.782z M294.279,261.798c9.547,0,18.591-6.783,22.611-15.828v-13.818
				c-23.868,0-35.173,6.532-35.173,18.592C281.717,257.024,285.988,261.798,294.279,261.798z"/>
			<path fill="#6CBE45" d="M379.701,254.763c3.266,0,12.813,7.035,24.621,7.035c10.552,0,15.325-3.769,15.325-11.306
				c0-22.109-50.247-9.044-50.247-54.016c0-25.124,17.838-40.7,46.228-40.7c8.291,0,37.183,1.759,37.183,15.828
				c0,3.266-5.778,18.592-10.803,18.592c-2.512,0-10.049-5.276-21.355-5.276c-8.542,0-13.566,2.763-13.566,9.044
				c0,18.34,50.247,8.793,50.247,53.513c0,26.38-18.843,43.715-46.981,43.715c-21.857,0-43.966-5.778-43.966-17.837
				C366.385,268.33,374.424,254.763,379.701,254.763z"/>
			<path fill="#6CBE45" d="M463.362,167.333c-0.503-1.758-1.005-3.266-1.005-4.522c0-3.518,4.773-5.527,15.326-5.527h8.039
				c7.285,0,12.812,1.256,14.068,5.276l14.824,46.479c1.758,5.778,4.773,19.596,7.034,30.399h1.005
				c2.262-10.803,5.275-24.873,7.035-30.399l14.822-46.479c1.256-4.02,6.783-5.276,14.069-5.276h6.029
				c10.552,0,15.074,2.01,15.074,5.527c0,1.256-0.251,2.764-0.754,4.522l-57.532,168.328c-1.508,4.02-6.783,5.276-14.07,5.276
				h-4.271c-10.3,0-15.074-2.01-15.074-5.276c0-1.256,0.251-2.764,1.005-4.522l15.828-41.957L463.362,167.333z"/>
		</g>
		<g>
			<path fill="#FFFFFF" d="M659.823,295.377h-5.489c-1.537,0-2.195-0.988-2.195-3.293v-1.317c0-2.306,0.658-3.293,2.195-3.293h5.489
				l1.317-11.528c0.11-1.537,1.208-2.415,3.514-2.415h1.098c2.306,0,3.294,0.878,3.294,2.415v11.528h9.222
				c1.537,0,2.195,0.988,2.195,3.293v1.317c0,2.306-0.658,3.293-2.195,3.293h-9.222v34.144c0,6.587,2.744,8.124,5.928,8.124
				c3.185,0,3.733-0.549,4.721-0.549c1.537,0,2.306,4.282,2.306,5.16c0,2.964-5.05,3.293-8.014,3.293
				c-5.49,0-14.163-2.416-14.163-15.15V295.377z"/>
			<path fill="#FFFFFF" d="M711.643,286.814c16.139,0,24.922,10.54,24.922,29.642c0,18.993-8.563,29.094-24.922,29.094
				c-16.578,0-25.471-10.21-25.471-29.094C686.172,297.464,695.284,286.814,711.643,286.814z M727.013,316.237
				c0-14.602-4.94-21.519-15.699-21.519c-10.649,0-15.48,6.807-15.48,21.519c0,14.602,4.721,21.408,15.48,21.408
				C722.072,337.646,727.013,330.839,727.013,316.237z"/>
		</g>
	</g>
</g>
</svg>
