<?xml version="1.0" encoding="utf-8"?>
<!-- Generator: Adobe Illustrator 16.2.1, SVG Export Plug-In . SVG Version: 6.00 Build 0)  -->
<!DOCTYPE svg PUBLIC "-//W3C//DTD SVG 1.1//EN" "http://www.w3.org/Graphics/SVG/1.1/DTD/svg11.dtd">
<svg version="1.1" id="Layer_1" xmlns="http://www.w3.org/2000/svg" xmlns:xlink="http://www.w3.org/1999/xlink" x="0px" y="0px"
	 width="300px" height="100px" viewBox="0 0 300 100" enable-background="new 0 0 300 100" xml:space="preserve">
<g>
	<g>
		<path fill="#444445" d="M-229.837,84.154V28.857c0-0.104,0.019-0.195,0.029-0.293V11.586c0-2.566-2.081-4.646-4.647-4.646
			h-104.713c-2.565,0-4.646,2.08-4.646,4.646v76.827c0,2.567,2.081,4.646,4.646,4.646h104.713c2.566,0,4.647-2.08,4.647-4.646
			v-3.967C-229.818,84.349-229.837,84.258-229.837,84.154z"/>
		<path fill="#FFFFFF" d="M-256.165,45.071c0-8.508,7.1-15.608,15.608-15.608c2.451,0,4.784,0.591,6.866,1.633V13.367
			c0-1.539-1.248-2.788-2.788-2.788h-100.666c-1.539,0-2.788,1.249-2.788,2.788v36.555h84.562
			C-255.884,48.391-256.165,46.759-256.165,45.071z"/>
		<g>
			<path fill="#FFFFFF" d="M-325.339,71.16v-1.53c0-1.465-0.879-2.735-3.582-2.735c-2.963,0-4.753,1.367-5.079,1.367
				c-0.456,0-1.14-1.271-1.14-1.628c0-0.847,2.865-2.083,6.121-2.083c4.038,0,6.415,1.889,6.415,5.111v7.294
				c0,2.67,0.391,3.939,0.391,4.103c0,0.619-1.335,0.749-1.758,0.749c-0.782,0-0.944-1.368-1.14-2.279
				c-1.238,1.367-3.028,2.442-5.471,2.442c-3.158,0-5.567-1.531-5.567-4.884C-336.148,71.583-330.32,71.225-325.339,71.16z
				 M-330.451,79.592c2.377,0,3.811-1.074,5.112-2.246v-3.842c-3.387,0.032-7.88,0.032-7.88,3.418
				C-333.219,78.649-332.274,79.592-330.451,79.592z"/>
			<path fill="#FFFFFF" d="M-312.216,64.55c2.507,0,4.884,0.716,4.884,1.498c0,0.521-0.619,1.758-1.042,1.758
				c-0.065,0-0.163-0.065-0.358-0.13c-0.586-0.26-1.791-0.781-3.549-0.781c-2.865,0-4.722,1.692-4.722,6.219
				c0,4.559,1.368,6.513,5.047,6.513c1.824,0,3.094-0.554,3.68-0.847c0.195-0.066,0.325-0.13,0.358-0.13
				c0.456,0,1.107,1.204,1.107,1.66c0,0.75-2.279,1.661-5.112,1.661c-5.275,0-8.011-2.508-8.011-8.792
				C-319.934,66.373-315.961,64.55-312.216,64.55z"/>
			<path fill="#FFFFFF" d="M-304.467,58.005c0-0.456,0.391-0.716,1.303-0.716h0.13c0.912,0,1.303,0.26,1.303,0.716v8.792
				c1.14-1.14,2.897-2.247,4.981-2.247s5.178,0.846,5.178,5.274v11.299c0,0.457-0.391,0.717-1.303,0.717h-0.13
				c-0.912,0-1.303-0.26-1.303-0.717V70.084c0-1.92-1.106-3.158-3.321-3.158c-2.442,0-4.103,2.279-4.103,2.279v11.917
				c0,0.457-0.391,0.717-1.303,0.717h-0.13c-0.912,0-1.303-0.26-1.303-0.717V58.005z"/>
			<path fill="#FFFFFF" d="M-287.86,59.926v-1.921c0-0.456,0.391-0.716,1.302-0.716h0.392c0.911,0,1.302,0.26,1.302,0.716v1.921
				c0,0.456-0.391,0.716-1.302,0.716h-0.392C-287.47,60.642-287.86,60.381-287.86,59.926z M-287.73,65.396
				c0-0.456,0.392-0.716,1.303-0.716h0.131c0.911,0,1.302,0.26,1.302,0.716v15.728c0,0.457-0.391,0.717-1.302,0.717h-0.131
				c-0.911,0-1.303-0.26-1.303-0.717V65.396z"/>
			<path fill="#FFFFFF" d="M-274.314,64.55c4.461,0,6.707,2.963,6.707,8.499c0,0.39-0.684,1.335-1.074,1.335h-10.289
				c0.26,3.614,1.79,5.243,5.014,5.243c2.833,0,4.429-1.368,4.755-1.368c0.455,0,1.139,1.27,1.139,1.628
				c0,0.781-2.572,2.083-5.861,2.083c-5.404,0-7.977-2.768-7.977-8.596C-281.901,67.61-279.296,64.55-274.314,64.55z
				 M-270.506,72.039c0-3.418-1.302-5.144-3.907-5.144c-2.832,0-4.33,1.726-4.558,5.144H-270.506z"/>
			<path fill="#FFFFFF" d="M-266.988,65.657c-0.033-0.097-0.098-0.293-0.098-0.423c0-0.326,0.423-0.554,1.399-0.554h0.262
				c0.65,0,1.171,0.13,1.302,0.521l4.363,13.187l4.363-13.187c0.13-0.391,0.65-0.521,1.335-0.521c0.977,0,1.399,0.195,1.399,0.554
				c0,0.13-0.032,0.26-0.097,0.456l-5.243,15.629c-0.13,0.391-0.651,0.521-1.302,0.521h-1.14c-0.651,0-1.173-0.13-1.303-0.521
				L-266.988,65.657z"/>
			<path fill="#FFFFFF" d="M-244.229,64.55c4.461,0,6.708,2.963,6.708,8.499c0,0.39-0.684,1.335-1.075,1.335h-10.289
				c0.261,3.614,1.791,5.243,5.015,5.243c2.833,0,4.428-1.368,4.754-1.368c0.456,0,1.14,1.27,1.14,1.628
				c0,0.781-2.572,2.083-5.861,2.083c-5.405,0-7.978-2.768-7.978-8.596C-251.815,67.61-249.21,64.55-244.229,64.55z
				 M-240.419,72.039c0-3.418-1.303-5.144-3.907-5.144c-2.833,0-4.33,1.726-4.559,5.144H-240.419z"/>
		</g>
		<g>
			<path fill="#6CBD45" d="M-320.845,19.019c6.01,0,8.269,4.555,8.269,9.876c0,0.651-1.455,2.259-1.952,2.259h-9.762
				c0.268,3.062,1.914,4.019,4.402,4.019c2.411,0,4.096-1.186,4.632-1.186c0.842,0,1.99,2.144,1.99,2.909
				c0,1.914-4.746,2.756-6.891,2.756c-6.929,0-9.991-4.02-9.991-10.183C-330.147,21.928-326.319,19.019-320.845,19.019z
				 M-318.089,27.364c0-2.22-0.842-3.866-2.756-3.866c-1.608,0-2.986,0.919-3.445,3.866H-318.089z"/>
			<path fill="#6CBD45" d="M-300.441,26.943V25.68c0-1.455-0.881-2.182-2.986-2.182c-2.794,0-4.44,1.225-4.899,1.225
				c-0.804,0-1.991-2.259-1.991-3.062c0-1.301,3.062-2.641,7.312-2.641c6.049,0,8.23,2.679,8.23,6.393v7.197
				c0,3.943,0.46,4.747,0.46,5.551c0,0.918-3.331,1.225-4.288,1.225c-1.225,0-1.301-1.608-1.531-2.642
				c-0.268,0.498-2.104,2.909-5.627,2.909c-4.134,0-5.665-2.45-5.665-5.589S-310.165,26.943-300.441,26.943z M-303.887,35.173
				c1.454,0,2.833-1.033,3.445-2.411v-2.105c-3.637,0-5.359,0.995-5.359,2.833C-305.801,34.446-305.15,35.173-303.887,35.173z"/>
			<path fill="#6CBD45" d="M-290.871,34.101c0.497,0,1.952,1.072,3.751,1.072c1.608,0,2.336-0.574,2.336-1.722
				c0-3.369-7.656-1.378-7.656-8.23c0-3.828,2.718-6.201,7.043-6.201c1.264,0,5.666,0.268,5.666,2.412
				c0,0.497-0.881,2.833-1.646,2.833c-0.383,0-1.531-0.804-3.254-0.804c-1.301,0-2.066,0.421-2.066,1.378
				c0,2.794,7.655,1.34,7.655,8.154c0,4.02-2.871,6.661-7.158,6.661c-3.33,0-6.698-0.88-6.698-2.718
				C-292.899,36.168-291.676,34.101-290.871,34.101z"/>
			<path fill="#6CBD45" d="M-278.124,20.78c-0.076-0.268-0.152-0.498-0.152-0.689c0-0.536,0.728-0.842,2.335-0.842h1.225
				c1.11,0,1.952,0.191,2.144,0.804l2.259,7.082c0.268,0.88,0.728,2.986,1.071,4.632h0.153c0.345-1.646,0.805-3.79,1.072-4.632
				l2.258-7.082c0.192-0.612,1.034-0.804,2.145-0.804h0.919c1.607,0,2.296,0.306,2.296,0.842c0,0.191-0.037,0.421-0.114,0.689
				l-8.767,25.648c-0.229,0.612-1.033,0.804-2.144,0.804h-0.65c-1.569,0-2.297-0.306-2.297-0.804c0-0.191,0.038-0.421,0.153-0.689
				l2.411-6.393L-278.124,20.78z"/>
		</g>
		<g>
			<path fill="#FFFFFF" d="M-248.188,40.29h-0.837c-0.234,0-0.335-0.15-0.335-0.501v-0.201c0-0.351,0.101-0.502,0.335-0.502h0.837
				l0.2-1.756c0.017-0.234,0.184-0.368,0.535-0.368h0.167c0.352,0,0.502,0.134,0.502,0.368v1.756h1.405
				c0.234,0,0.335,0.151,0.335,0.502v0.201c0,0.351-0.101,0.501-0.335,0.501h-1.405v5.203c0,1.003,0.418,1.238,0.903,1.238
				s0.569-0.083,0.719-0.083c0.234,0,0.352,0.652,0.352,0.786c0,0.452-0.77,0.502-1.221,0.502c-0.837,0-2.157-0.368-2.157-2.309
				V40.29z"/>
			<path fill="#FFFFFF" d="M-240.294,38.985c2.459,0,3.798,1.606,3.798,4.517c0,2.894-1.305,4.433-3.798,4.433
				c-2.525,0-3.881-1.556-3.881-4.433C-244.175,40.607-242.786,38.985-240.294,38.985z M-237.951,43.468
				c0-2.225-0.753-3.279-2.393-3.279c-1.622,0-2.358,1.038-2.358,3.279c0,2.225,0.72,3.262,2.358,3.262
				C-238.704,46.73-237.951,45.693-237.951,43.468z"/>
		</g>
	</g>
</g>
<g>
	<path fill="#5FB0E2" d="M132.138,34.854c0.365,2.252,0.053,3.62-0.577,4.883c-0.1,0.202-0.208,0.399-0.324,0.599
		c-0.233,0.403,0.214,0.926,0.697,0.812c0.189-0.045,0.379-0.083,0.567-0.119c3.502-0.67,6.677,0.094,8.649,0.807
		c0.128,0.046,0.248,0.092,0.364,0.138c1.087,0.419,0.756-0.023,0.213-0.394c-0.123-0.083-0.247-0.164-0.372-0.245
		c-1.887-1.212-4.137-2.153-6.128-2.777c0.826-2.209,1.019-4.679,0.417-7.143c-1.607-6.541-8.208-10.546-14.75-8.939
		c-2.674,0.654-4.926,2.146-6.542,4.13c-3.351-6.606-9.63-11.635-17.473-13.105c-13.397-2.506-26.542,6.274-28.794,19.715
		c-1.084,6.468,0.359,10.436,2.389,13.685c-6.669,0.631-13.911,4.604-15.116,11.539c-2.57,14.772,9.051,17.607,14.257,18.142
		c0.133,0.015,0.263,0.027,0.388,0.039c1.235,0.108,1.161-0.21,0.108-0.711c-0.071-0.033-0.144-0.067-0.217-0.105
		c-3.824-1.874-11.253-6.8-9.639-14.966c1.636-8.256,9.187-10.335,15.181-11.066c0.135-0.018,0.267-0.033,0.399-0.048
		c0.386-0.044,0.631-0.692,0.4-0.972c-0.094-0.113-0.186-0.227-0.274-0.338c-2.832-3.534-3.614-6.36-3.392-11.054
		c0.6-12.579,11.641-20.246,24.021-17.932c6.297,1.181,12.04,6.306,15.242,11.89c0.131,0.229,0.259,0.461,0.382,0.693
		c0.328,0.614,1.477,0.721,1.837,0.089c0.131-0.229,0.273-0.462,0.425-0.695c0.966-1.479,2.416-2.994,5.165-3.901
		C125.552,25.552,131.141,28.71,132.138,34.854z"/>
	<g>
		<path fill="#6ABD52" d="M140.313,76.199h-4.316l4.389-30.255h8.517c1.517,0,2.714,0.258,3.596,0.774s1.58,1.369,2.093,2.559
			c0.514,1.19,0.773,2.611,0.773,4.263c0,1.525-0.205,3.012-0.614,4.457c-0.412,1.445-0.913,2.601-1.51,3.466
			c-0.596,0.867-1.236,1.524-1.923,1.973c-0.685,0.445-1.609,0.787-2.771,1.021c-0.677,0.137-1.943,0.207-3.804,0.207h-2.756
			L140.313,76.199z M142.7,59.649h1.33c2.277,0,3.797-0.207,4.559-0.62c0.764-0.413,1.362-1.073,1.803-1.981
			c0.438-0.908,0.656-1.906,0.656-2.992c0-0.729-0.111-1.327-0.336-1.796c-0.224-0.468-0.538-0.809-0.942-1.021
			c-0.406-0.213-1.309-0.319-2.709-0.319h-3.088L142.7,59.649z"/>
		<path fill="#6ABD52" d="M159.936,76.199h-4.313l4.386-30.255h9.305c1.603,0,2.848,0.238,3.738,0.713
			c0.892,0.475,1.609,1.344,2.158,2.608c0.55,1.267,0.822,2.802,0.822,4.604c0,2.574-0.533,4.696-1.6,6.367
			c-1.067,1.67-2.686,2.708-4.847,3.105c0.552,0.715,1.072,1.657,1.559,2.827c0.961,2.368,2.033,5.711,3.216,10.03h-4.632
			c-0.371-1.705-1.101-4.369-2.188-7.985c-0.59-1.955-1.219-3.269-1.886-3.942c-0.409-0.4-1.125-0.6-2.144-0.6h-1.759
			L159.936,76.199z M162.41,59.133h2.285c2.317,0,3.854-0.2,4.613-0.599c0.756-0.398,1.349-1.026,1.777-1.879
			s0.643-1.746,0.643-2.683c0-1.099-0.311-1.925-0.93-2.477c-0.38-0.33-1.204-0.496-2.471-0.496h-4.745L162.41,59.133z"/>
		<path fill="#6ABD52" d="M178.032,64.334c0-1.79,0.186-3.676,0.557-5.656c0.486-2.654,1.229-4.96,2.224-6.913
			c0.997-1.954,2.252-3.499,3.767-4.633c1.516-1.136,3.24-1.703,5.174-1.703c2.592,0,4.685,1.163,6.282,3.487
			c1.595,2.325,2.392,5.408,2.392,9.247c0,3.191-0.518,6.279-1.556,9.264c-1.038,2.986-2.45,5.284-4.232,6.896
			c-1.782,1.607-3.796,2.414-6.046,2.414c-1.953,0-3.591-0.641-4.916-1.92s-2.264-2.864-2.815-4.757
			C178.31,68.168,178.032,66.259,178.032,64.334z M182.291,64.209c0,2.076,0.438,3.817,1.315,5.222
			c0.876,1.401,2.03,2.103,3.459,2.103c1.163,0,2.28-0.552,3.35-1.659c1.075-1.108,1.961-2.784,2.659-5.037
			c0.701-2.249,1.053-4.438,1.053-6.571c0-2.381-0.445-4.248-1.332-5.603c-0.886-1.357-2.014-2.034-3.387-2.034
			c-2.104,0-3.814,1.419-5.138,4.251C182.951,57.716,182.291,60.824,182.291,64.209z"/>
		<path fill="#6ABD52" d="M199.386,76.199l4.389-30.255h14.663L217.696,51h-10.348l-1.06,7.266h10.149l-0.732,5.054h-10.145
			l-1.859,12.88H199.386z"/>
		<path fill="#6ABD52" d="M217.138,76.199l4.388-30.255h4.303l-4.375,30.255H217.138z"/>
		<path fill="#6ABD52" d="M234.573,76.199h-4.316L233.919,51h-6.147l0.729-5.056h16.507L244.28,51h-6.062L234.573,76.199z"/>
	</g>
	<g>
		<g>
			<g>
				<path fill="#5FB0E2" d="M96.572,54.817c0,0.136-0.111,0.248-0.248,0.248h-6.824c-0.136,0-0.248-0.111-0.248-0.248v-1.751
					c0-0.136-0.006-0.359-0.014-0.495c0,0-0.08-1.47-0.268-1.757c-0.188-0.284-0.5-0.43-0.936-0.43
					c-0.475,0-0.833,0.195-1.076,0.581c-0.245,0.387-0.366,0.974-0.366,1.76c0,1.012,0.137,1.774,0.411,2.286
					c0.261,0.512,1.003,1.131,2.227,1.854c3.508,2.082,5.718,3.791,6.628,5.125c0.911,1.337,1.367,3.49,1.367,6.458
					c0,2.16-0.254,3.75-0.758,4.773c-0.506,1.023-1.482,1.882-2.93,2.575c-1.449,0.691-3.132,1.04-5.054,1.04
					c-2.11,0-3.91-0.399-5.4-1.199c-1.491-0.797-2.469-1.816-2.93-3.052c-0.462-1.235-0.692-2.989-0.692-5.261V65.59
					c0-0.136,0.111-0.248,0.248-0.248h6.823c0.136,0,0.248,0.111,0.248,0.248v3.19c0,0.136,0.006,0.359,0.014,0.495
					c0,0,0.091,1.62,0.296,1.945c0.206,0.325,0.571,0.486,1.096,0.486c0.524,0,0.913-0.207,1.169-0.617
					c0.256-0.414,0.384-1.023,0.384-1.835c0-1.785-0.244-2.953-0.731-3.502c-0.5-0.55-1.728-1.465-3.688-2.751
					c-1.959-1.299-3.258-2.24-3.894-2.825c-0.636-0.588-1.164-1.399-1.583-2.435c-0.417-1.036-0.626-2.359-0.626-3.969
					c0-2.32,0.296-4.019,0.889-5.092c0.592-1.073,1.551-1.914,2.874-2.519c1.322-0.604,2.92-0.908,4.792-0.908
					c2.046,0,3.791,0.332,5.233,0.993c1.44,0.662,2.396,1.494,2.864,2.497c0.467,1.007,0.702,2.713,0.702,5.121V54.817z"/>
			</g>
			<g>
				<path fill="#5FB0E2" d="M118.236,45.892c0.136,0,0.213,0.105,0.17,0.235l-4.366,13.216c-0.042,0.129-0.046,0.342-0.007,0.472
					l4.81,16.147c0.039,0.131-0.041,0.237-0.177,0.237h-7.647c-0.136,0-0.274-0.108-0.307-0.24l-3.075-12.512
					c-0.033-0.132-0.059-0.129-0.059,0.007v12.497c0,0.136-0.111,0.248-0.248,0.248h-7.386c-0.136,0-0.248-0.111-0.248-0.248V46.139
					c0-0.136,0.111-0.248,0.248-0.248h7.386c0.136,0,0.248,0.111,0.248,0.248v11.28c0,0.136,0.032,0.141,0.071,0.01l3.371-11.301
					c0.039-0.131,0.182-0.237,0.318-0.237H118.236z"/>
			</g>
			<g>
				<path fill="#5FB0E2" d="M136.816,45.892c0.136,0,0.216,0.107,0.177,0.237l-5.606,18.863c-0.039,0.13-0.07,0.349-0.07,0.485
					v10.475c0,0.136-0.111,0.248-0.248,0.248h-6.806c-0.136,0-0.248-0.111-0.248-0.248V65.477c0-0.136-0.031-0.354-0.068-0.485
					l-5.403-18.862c-0.038-0.131,0.043-0.238,0.179-0.238h6.744c0.136,0,0.267,0.109,0.291,0.244c0,0,1.726,9.653,1.871,11.701
					c0.437-3.233,1.168-7.217,2.194-11.944H136.816z"/>
			</g>
		</g>
	</g>
	<path fill="#6ABD52" d="M84.356,86.882c0.125-0.005,0.255-0.01,0.383-0.015c24.633-0.87,84.39-2.45,144.412-0.008
		c0.272,0.013,0.547,0.024,0.819,0.034c3.257,0.135,3.654-0.6-0.366-1.166c-0.176-0.023-0.347-0.053-0.522-0.079
		c-54.925-8.436-84.17-8.392-144.486,0.021c-0.12,0.017-0.242,0.034-0.362,0.051C80.604,86.229,77.092,87.142,84.356,86.882z"/>
	<circle fill="#6ABD52" cx="84.896" cy="86.258" r="0.611"/>
</g>
<g>
	<path fill="#49494A" d="M435.146,212.518c-0.672,1.129-1.552,1.943-2.641,2.439c-1.089,0.498-2.318,0.746-3.69,0.746
		c-1.56,0-2.931-0.303-4.113-0.906c-1.183-0.605-2.157-1.426-2.924-2.461c-0.767-1.033-1.345-2.225-1.733-3.568
		c-0.391-1.344-0.586-2.742-0.586-4.195c0-1.396,0.195-2.748,0.586-4.052c0.389-1.303,0.967-2.453,1.733-3.447
		c0.767-0.996,1.728-1.795,2.884-2.4c1.155-0.605,2.5-0.908,4.033-0.908c1.236,0,2.412,0.264,3.527,0.787
		c1.116,0.525,1.997,1.299,2.643,2.32h0.08V185.13l5.727,2.094v27.956h-5.443v-2.662H435.146z M434.905,202.213
		c-0.161-0.791-0.438-1.491-0.827-2.095c-0.39-0.605-0.894-1.096-1.512-1.473c-0.619-0.375-1.398-0.564-2.34-0.564
		s-1.733,0.189-2.379,0.564c-0.645,0.377-1.163,0.873-1.553,1.492s-0.672,1.323-0.847,2.116s-0.263,1.621-0.263,2.48
		c0,0.807,0.095,1.613,0.283,2.42c0.188,0.807,0.49,1.525,0.907,2.156c0.417,0.633,0.94,1.145,1.573,1.533
		c0.631,0.391,1.391,0.584,2.277,0.584c0.941,0,1.729-0.186,2.359-0.562c0.632-0.377,1.136-0.881,1.513-1.514
		c0.376-0.631,0.646-1.352,0.807-2.158c0.161-0.805,0.241-1.639,0.241-2.5C435.146,203.834,435.066,203.006,434.905,202.213z"/>
	<path fill="#49494A" d="M450.553,194.331v20.849h-5.727v-20.849H450.553z"/>
	<path fill="#49494A" d="M453.697,217.76c0.592,0,1.109-0.113,1.553-0.342s0.666-0.732,0.666-1.514v-21.573h5.727v21.856
		c0,1.074-0.115,2.004-0.343,2.783c-0.229,0.779-0.618,1.432-1.169,1.955c-0.553,0.525-1.299,0.914-2.239,1.17
		s-2.138,0.383-3.589,0.383c-0.672,0-1.277-0.055-1.814-0.16V217.6C452.784,217.707,453.188,217.76,453.697,217.76z"/>
	<path fill="#49494A" d="M465.312,217.76c0.591,0,1.109-0.113,1.553-0.342s0.664-0.732,0.664-1.514v-21.573h5.728v21.856
		c0,1.074-0.114,2.004-0.343,2.783s-0.619,1.432-1.17,1.955c-0.551,0.525-1.297,0.914-2.238,1.17s-2.137,0.383-3.589,0.383
		c-0.673,0-1.276-0.055-1.814-0.16V217.6C464.398,217.707,464.802,217.76,465.312,217.76z"/>
	<path fill="#49494A" d="M484.63,194.331v20.849h-5.727v-20.849H484.63z"/>
	<polygon fill="#49494A" points="444.99,192.778 444.99,188.573 450.553,189.829 450.553,192.778 	"/>
	<polygon fill="#49494A" points="456.08,192.778 456.08,190.247 461.643,190.667 461.643,192.778 	"/>
	<polygon fill="#49494A" points="467.694,192.778 467.694,190.667 473.257,190.247 473.257,192.778 	"/>
	<polygon fill="#49494A" points="479.068,192.778 479.068,189.411 484.631,187.735 484.631,192.778 	"/>
	<path fill="#56B44C" d="M416.645,195.749l-12.123-12.123c-3.152,3.438-4.797,7.762-4.936,12.123H416.645z"/>
	<path fill="#409945" d="M399.588,196.966c0.145,4.427,1.834,8.815,5.084,12.276l12.277-12.276H399.588z"/>
	<path fill="#388740" d="M417.594,198.042l-12.062,12.06c3.406,3.197,7.707,4.887,12.062,5.078V198.042z"/>
	<path fill="#7DC36B" d="M417.594,177.532c-4.422,0.193-8.789,1.934-12.219,5.225l12.219,12.219V177.532z"/>
	<path fill="#A1D086" d="M418.811,195.103l12.496-12.494c-3.52-3.302-7.994-4.994-12.496-5.087V195.103z"/>
	<g>
		<path fill="#56B44C" d="M499.651,194.47c0.853,0,1.661,0.106,2.428,0.319c0.765,0.214,1.435,0.538,2.006,0.975
			c0.571,0.436,1.027,0.998,1.366,1.686c0.34,0.688,0.509,1.498,0.509,2.428c0,1.318-0.339,2.461-1.017,3.43
			c-0.68,0.971-1.688,1.59-3.024,1.861v0.059c0.679,0.096,1.24,0.275,1.687,0.537c0.445,0.262,0.809,0.596,1.09,1.004
			c0.281,0.406,0.484,0.877,0.611,1.41c0.125,0.533,0.207,1.109,0.246,1.729c0.02,0.35,0.039,0.775,0.059,1.279
			s0.059,1.014,0.116,1.527s0.149,0.998,0.276,1.453c0.125,0.455,0.295,0.809,0.509,1.061h-2.181
			c-0.116-0.193-0.209-0.432-0.275-0.713c-0.068-0.279-0.117-0.57-0.146-0.871s-0.053-0.596-0.072-0.887s-0.039-0.543-0.059-0.756
			c-0.039-0.736-0.102-1.469-0.188-2.195s-0.271-1.375-0.552-1.947c-0.281-0.572-0.689-1.033-1.222-1.381
			c-0.533-0.35-1.265-0.504-2.194-0.465h-7.501v9.215h-1.978V194.47H499.651z M499.506,204.324c0.602,0,1.173-0.092,1.715-0.275
			c0.543-0.184,1.018-0.451,1.426-0.799c0.406-0.35,0.73-0.771,0.974-1.266c0.241-0.494,0.363-1.061,0.363-1.7
			c0-1.279-0.368-2.287-1.104-3.024c-0.737-0.736-1.861-1.104-3.373-1.104h-7.384v8.168H499.506z"/>
		<path fill="#56B44C" d="M523.868,194.47v1.687h-12.355v7.5h11.57v1.686h-11.57v8.199h12.501v1.686h-14.479V194.47H523.868z"/>
		<path fill="#56B44C" d="M535.991,194.47c0.93,0,1.772,0.131,2.528,0.392c0.756,0.262,1.405,0.65,1.948,1.164
			c0.542,0.514,0.959,1.139,1.25,1.875s0.437,1.569,0.437,2.5c0,0.93-0.146,1.764-0.437,2.5s-0.708,1.361-1.25,1.875
			c-0.543,0.514-1.192,0.9-1.948,1.162s-1.599,0.393-2.528,0.393h-7.239v8.896h-1.978V194.47H535.991z M535.555,204.645
			c1.376,0,2.49-0.35,3.343-1.047c0.854-0.697,1.279-1.764,1.279-3.197s-0.426-2.5-1.279-3.198
			c-0.853-0.698-1.967-1.046-3.343-1.046h-6.803v8.488H535.555z"/>
		<path fill="#56B44C" d="M544.596,200.749c0.407-1.298,1.018-2.446,1.832-3.444c0.813-0.998,1.836-1.793,3.067-2.385
			c1.23-0.591,2.66-0.887,4.288-0.887s3.052,0.296,4.273,0.887c1.221,0.592,2.238,1.387,3.053,2.385
			c0.813,0.998,1.424,2.146,1.831,3.444s0.61,2.665,0.61,4.099c0,1.436-0.203,2.801-0.61,4.1s-1.018,2.441-1.831,3.43
			c-0.814,0.988-1.832,1.779-3.053,2.371c-1.222,0.59-2.646,0.887-4.273,0.887s-3.058-0.297-4.288-0.887
			c-1.231-0.592-2.254-1.383-3.067-2.371c-0.814-0.988-1.425-2.131-1.832-3.43c-0.406-1.299-0.61-2.664-0.61-4.1
			C543.985,203.414,544.189,202.047,544.596,200.749z M546.413,208.178c0.3,1.094,0.766,2.072,1.396,2.936s1.439,1.555,2.428,2.078
			s2.17,0.785,3.547,0.785c1.376,0,2.553-0.262,3.532-0.785c0.979-0.523,1.782-1.215,2.413-2.078
			c0.629-0.863,1.095-1.842,1.396-2.936c0.3-1.096,0.45-2.205,0.45-3.33c0-1.143-0.15-2.258-0.45-3.344
			c-0.301-1.084-0.767-2.059-1.396-2.92c-0.631-0.863-1.435-1.557-2.413-2.08c-0.979-0.522-2.156-0.784-3.532-0.784
			c-1.377,0-2.559,0.262-3.547,0.784c-0.988,0.523-1.798,1.217-2.428,2.08c-0.63,0.861-1.096,1.836-1.396,2.92
			c-0.301,1.086-0.45,2.201-0.45,3.344C545.963,205.973,546.112,207.082,546.413,208.178z"/>
		<path fill="#56B44C" d="M576.139,194.47c0.853,0,1.662,0.106,2.428,0.319c0.766,0.214,1.434,0.538,2.006,0.975
			c0.571,0.436,1.027,0.998,1.366,1.686c0.339,0.688,0.509,1.498,0.509,2.428c0,1.318-0.339,2.461-1.018,3.43
			c-0.679,0.971-1.686,1.59-3.023,1.861v0.059c0.679,0.096,1.24,0.275,1.687,0.537c0.445,0.262,0.809,0.596,1.09,1.004
			c0.281,0.406,0.484,0.877,0.61,1.41s0.208,1.109,0.247,1.729c0.02,0.35,0.039,0.775,0.059,1.279s0.059,1.014,0.116,1.527
			c0.059,0.514,0.15,0.998,0.276,1.453s0.295,0.809,0.509,1.061h-2.181c-0.116-0.193-0.208-0.432-0.276-0.713
			c-0.067-0.279-0.116-0.57-0.146-0.871c-0.028-0.301-0.053-0.596-0.072-0.887s-0.039-0.543-0.059-0.756
			c-0.039-0.736-0.102-1.469-0.188-2.195s-0.271-1.375-0.553-1.947s-0.688-1.033-1.221-1.381c-0.533-0.35-1.265-0.504-2.195-0.465
			h-7.5v9.215h-1.978V194.47H576.139z M575.993,204.324c0.601,0,1.173-0.092,1.716-0.275c0.542-0.184,1.018-0.451,1.424-0.799
			c0.407-0.35,0.731-0.771,0.975-1.266c0.242-0.494,0.363-1.061,0.363-1.7c0-1.279-0.368-2.287-1.104-3.024
			c-0.737-0.736-1.861-1.104-3.373-1.104h-7.384v8.168H575.993z"/>
		<path fill="#56B44C" d="M600.414,194.47v1.687h-7.239v19.07h-1.977v-19.07h-7.21v-1.687H600.414z"/>
	</g>
</g>
<g>
	<path fill="#49494A" d="M-286.991,212.519c-0.673,1.131-1.553,1.943-2.642,2.441c-1.089,0.496-2.318,0.746-3.69,0.746
		c-1.559,0-2.93-0.303-4.113-0.908c-1.183-0.605-2.157-1.426-2.924-2.461c-0.766-1.033-1.345-2.223-1.733-3.568
		c-0.391-1.344-0.585-2.742-0.585-4.195c0-1.396,0.194-2.748,0.585-4.053c0.389-1.304,0.968-2.453,1.733-3.448
		c0.767-0.994,1.728-1.794,2.884-2.399c1.155-0.604,2.5-0.907,4.033-0.907c1.236,0,2.412,0.262,3.528,0.786
		c1.115,0.524,1.996,1.298,2.642,2.319h0.081v-11.742l5.727,2.094v27.958h-5.444v-2.662H-286.991z M-287.233,202.216
		c-0.161-0.793-0.438-1.494-0.826-2.099c-0.391-0.605-0.895-1.096-1.513-1.472c-0.619-0.376-1.398-0.565-2.339-0.565
		c-0.941,0-1.734,0.189-2.38,0.565c-0.645,0.376-1.163,0.874-1.553,1.491c-0.39,0.619-0.672,1.325-0.847,2.118
		c-0.175,0.795-0.262,1.621-0.262,2.48c0,0.807,0.094,1.613,0.282,2.42c0.188,0.807,0.49,1.525,0.907,2.158
		c0.417,0.631,0.941,1.143,1.573,1.531c0.631,0.391,1.391,0.586,2.278,0.586c0.94,0,1.728-0.188,2.359-0.564
		c0.631-0.377,1.135-0.881,1.512-1.514c0.376-0.631,0.646-1.35,0.807-2.156c0.162-0.807,0.242-1.641,0.242-2.502
		C-286.991,203.835-287.071,203.009-287.233,202.216z"/>
	<path fill="#49494A" d="M-271.586,194.33v20.851h-5.727V194.33H-271.586z"/>
	<path fill="#49494A" d="M-268.44,217.763c0.591,0,1.108-0.115,1.553-0.344c0.443-0.229,0.665-0.732,0.665-1.512V194.33h5.727
		v21.858c0,1.076-0.114,2.004-0.343,2.783s-0.618,1.432-1.169,1.955c-0.552,0.525-1.298,0.914-2.239,1.17
		c-0.94,0.256-2.137,0.383-3.589,0.383c-0.672,0-1.276-0.053-1.814-0.16v-4.719C-269.354,217.708-268.951,217.763-268.44,217.763z"
		/>
	<path fill="#49494A" d="M-256.826,217.763c0.591,0,1.109-0.115,1.553-0.344s0.665-0.732,0.665-1.512V194.33h5.727v21.858
		c0,1.076-0.114,2.004-0.343,2.783s-0.618,1.432-1.169,1.955c-0.552,0.525-1.298,0.914-2.239,1.17
		c-0.94,0.256-2.137,0.383-3.589,0.383c-0.672,0-1.276-0.053-1.814-0.16v-4.719C-257.74,217.708-257.337,217.763-256.826,217.763z"
		/>
	<path fill="#49494A" d="M-237.509,194.33v20.851h-5.727V194.33H-237.509z"/>
	<polygon fill="#49494A" points="-277.148,192.778 -277.148,188.572 -271.586,189.829 -271.586,192.778 	"/>
	<polygon fill="#49494A" points="-266.059,192.778 -266.059,190.248 -260.496,190.666 -260.496,192.778 	"/>
	<polygon fill="#49494A" points="-254.444,192.778 -254.444,190.666 -248.882,190.248 -248.882,192.778 	"/>
	<polygon fill="#49494A" points="-243.07,192.778 -243.07,189.41 -237.508,187.735 -237.508,192.778 	"/>
	<path fill="#80529F" d="M-305.493,195.748l-12.124-12.122c-3.152,3.438-4.796,7.761-4.935,12.122H-305.493z"/>
	<path fill="#663E88" d="M-322.551,196.965c0.145,4.429,1.835,8.817,5.084,12.278l12.277-12.278H-322.551z"/>
	<path fill="#4F2B72" d="M-304.545,198.041l-12.062,12.063c3.406,3.195,7.708,4.887,12.062,5.076V198.041z"/>
	<path fill="#926AAD" d="M-304.545,177.531c-4.422,0.193-8.788,1.934-12.219,5.227l12.219,12.218V177.531z"/>
	<path fill="#A480B9" d="M-303.328,195.104l12.496-12.495c-3.519-3.303-7.994-4.995-12.496-5.088V195.104z"/>
	<g>
		<path fill="#80529F" d="M-229.871,194.423v20.758h-1.977v-20.758H-229.871z"/>
		<path fill="#80529F" d="M-223.359,194.423l12.094,17.561h0.059v-17.561h1.977v20.758h-2.209l-12.095-17.56h-0.058v17.56h-1.978
			v-20.758H-223.359z"/>
		<path fill="#80529F" d="M-205.247,194.423l6.744,18.578h0.059l6.686-18.578h2.094l-7.704,20.758h-2.297l-7.675-20.758H-205.247z"
			/>
		<path fill="#80529F" d="M-173.501,194.423v1.687h-12.355v7.501h11.57v1.686h-11.57v8.199h12.5v1.686h-14.478v-20.758H-173.501z"/>
		<path fill="#80529F" d="M-168.414,194.423l12.094,17.561h0.059v-17.561h1.977v20.758h-2.209l-12.094-17.56h-0.059v17.56h-1.977
			v-20.758H-168.414z"/>
		<path fill="#80529F" d="M-135.911,194.423v1.687h-7.239v19.071h-1.977v-19.071h-7.21v-1.687H-135.911z"/>
		<path fill="#80529F" d="M-134.458,200.702c0.407-1.298,1.018-2.445,1.832-3.444c0.813-0.998,1.836-1.792,3.067-2.384
			c1.23-0.592,2.66-0.887,4.288-0.887s3.052,0.295,4.273,0.887c1.221,0.592,2.238,1.386,3.053,2.384
			c0.813,0.999,1.424,2.146,1.831,3.444c0.407,1.299,0.61,2.666,0.61,4.1c0,1.436-0.203,2.801-0.61,4.1s-1.018,2.441-1.831,3.43
			c-0.814,0.988-1.832,1.779-3.053,2.371c-1.222,0.59-2.646,0.887-4.273,0.887s-3.058-0.297-4.288-0.887
			c-1.231-0.592-2.254-1.383-3.067-2.371c-0.814-0.988-1.425-2.131-1.832-3.43c-0.406-1.299-0.61-2.664-0.61-4.1
			C-135.068,203.368-134.864,202.001-134.458,200.702z M-132.641,208.132c0.3,1.094,0.766,2.072,1.396,2.936
			s1.439,1.555,2.428,2.078s2.17,0.785,3.547,0.785c1.376,0,2.553-0.262,3.532-0.785c0.979-0.523,1.782-1.215,2.413-2.078
			c0.629-0.863,1.095-1.842,1.396-2.936c0.3-1.096,0.45-2.205,0.45-3.33c0-1.143-0.15-2.258-0.45-3.344
			c-0.301-1.084-0.767-2.059-1.396-2.921c-0.631-0.862-1.435-1.556-2.413-2.079c-0.979-0.523-2.156-0.785-3.532-0.785
			c-1.377,0-2.559,0.262-3.547,0.785s-1.798,1.217-2.428,2.079s-1.096,1.837-1.396,2.921c-0.301,1.086-0.45,2.201-0.45,3.344
			C-133.091,205.927-132.941,207.036-132.641,208.132z"/>
		<path fill="#80529F" d="M-102.915,194.423c0.853,0,1.662,0.107,2.428,0.32s1.434,0.537,2.006,0.974
			c0.571,0.437,1.027,0.999,1.366,1.687s0.509,1.497,0.509,2.428c0,1.318-0.339,2.461-1.018,3.43
			c-0.679,0.971-1.686,1.59-3.023,1.861v0.059c0.679,0.096,1.24,0.275,1.687,0.537c0.445,0.262,0.809,0.596,1.09,1.004
			c0.281,0.406,0.484,0.877,0.61,1.41s0.208,1.109,0.247,1.729c0.02,0.35,0.039,0.775,0.059,1.279s0.059,1.014,0.116,1.527
			c0.059,0.514,0.15,0.998,0.276,1.453s0.295,0.809,0.509,1.061h-2.181c-0.116-0.193-0.208-0.432-0.276-0.713
			c-0.067-0.279-0.116-0.57-0.146-0.871c-0.028-0.301-0.053-0.596-0.072-0.887s-0.039-0.543-0.059-0.756
			c-0.039-0.736-0.102-1.469-0.188-2.195s-0.271-1.375-0.553-1.947s-0.688-1.033-1.221-1.381c-0.533-0.35-1.265-0.504-2.195-0.465
			h-7.5v9.215h-1.978v-20.758H-102.915z M-103.061,204.278c0.601,0,1.173-0.092,1.716-0.275c0.542-0.184,1.018-0.451,1.424-0.799
			c0.407-0.35,0.731-0.771,0.975-1.266c0.242-0.494,0.363-1.062,0.363-1.701c0-1.279-0.368-2.287-1.104-3.023
			c-0.737-0.736-1.861-1.104-3.373-1.104h-7.384v8.169H-103.061z"/>
		<path fill="#80529F" d="M-95.764,194.423h2.326l6.832,10.525l6.803-10.525h2.354l-8.198,12.211v8.547h-1.977v-8.547
			L-95.764,194.423z"/>
	</g>
</g>
<g>
	<path fill="#49494A" d="M75.146,212.519c-0.672,1.129-1.551,1.943-2.641,2.441c-1.088,0.496-2.318,0.744-3.689,0.744
		c-1.561,0-2.932-0.303-4.113-0.906c-1.184-0.605-2.158-1.426-2.924-2.461c-0.768-1.033-1.346-2.225-1.734-3.568
		c-0.391-1.344-0.586-2.742-0.586-4.195c0-1.396,0.195-2.748,0.586-4.053c0.389-1.303,0.967-2.453,1.734-3.447
		c0.766-0.996,1.727-1.795,2.883-2.4s2.5-0.908,4.033-0.908c1.236,0,2.412,0.264,3.527,0.787c1.117,0.525,1.998,1.299,2.643,2.32
		h0.08V185.13l5.727,2.094v27.957h-5.443v-2.662H75.146z M74.905,202.214c-0.162-0.791-0.438-1.492-0.828-2.096
		c-0.389-0.605-0.893-1.096-1.512-1.473c-0.619-0.375-1.398-0.564-2.34-0.564s-1.732,0.189-2.379,0.564
		c-0.645,0.377-1.162,0.873-1.553,1.492c-0.389,0.619-0.672,1.324-0.846,2.117c-0.176,0.793-0.264,1.621-0.264,2.48
		c0,0.807,0.096,1.613,0.283,2.42s0.49,1.525,0.908,2.158c0.416,0.631,0.939,1.143,1.572,1.531c0.631,0.391,1.391,0.586,2.277,0.586
		c0.941,0,1.729-0.188,2.359-0.564c0.633-0.377,1.137-0.881,1.514-1.514c0.375-0.631,0.645-1.352,0.807-2.156
		c0.16-0.807,0.24-1.641,0.24-2.502C75.146,203.835,75.065,203.007,74.905,202.214z"/>
	<path fill="#49494A" d="M90.552,194.331v20.85h-5.727v-20.85H90.552z"/>
	<path fill="#49494A" d="M93.696,217.761c0.592,0,1.109-0.113,1.553-0.342s0.666-0.732,0.666-1.514v-21.574h5.727v21.857
		c0,1.074-0.115,2.004-0.342,2.783c-0.229,0.779-0.619,1.432-1.17,1.955c-0.553,0.525-1.299,0.914-2.238,1.17
		c-0.941,0.256-2.139,0.383-3.59,0.383c-0.672,0-1.277-0.053-1.814-0.16v-4.719C92.784,217.708,93.187,217.761,93.696,217.761z"/>
	<path fill="#49494A" d="M105.312,217.761c0.592,0,1.109-0.113,1.553-0.342s0.664-0.732,0.664-1.514v-21.574h5.729v21.857
		c0,1.074-0.115,2.004-0.344,2.783s-0.619,1.432-1.17,1.955c-0.551,0.525-1.297,0.914-2.238,1.17s-2.137,0.383-3.588,0.383
		c-0.674,0-1.277-0.053-1.814-0.16v-4.719C104.397,217.708,104.802,217.761,105.312,217.761z"/>
	<path fill="#49494A" d="M124.63,194.331v20.85h-5.727v-20.85H124.63z"/>
	<polygon fill="#49494A" points="84.989,192.778 84.989,188.573 90.552,189.829 90.552,192.778 	"/>
	<polygon fill="#49494A" points="96.079,192.778 96.079,190.247 101.642,190.667 101.642,192.778 	"/>
	<polygon fill="#49494A" points="107.694,192.778 107.694,190.667 113.257,190.247 113.257,192.778 	"/>
	<polygon fill="#49494A" points="119.067,192.778 119.067,189.409 124.63,187.735 124.63,192.778 	"/>
	<path fill="#2E80C3" d="M56.644,195.749l-12.123-12.123c-3.152,3.438-4.797,7.76-4.936,12.123H56.644z"/>
	<path fill="#1D70A5" d="M39.587,196.966c0.145,4.428,1.834,8.816,5.084,12.277l12.277-12.277H39.587z"/>
	<path fill="#0B5B84" d="M57.593,198.042L45.53,210.103c3.406,3.197,7.707,4.887,12.062,5.078V198.042z"/>
	<path fill="#469BD5" d="M57.593,177.532c-4.422,0.191-8.789,1.934-12.219,5.225l12.219,12.219V177.532z"/>
	<path fill="#63B9E7" d="M58.81,195.103l12.496-12.494c-3.52-3.303-7.994-4.994-12.496-5.088V195.103z"/>
	<g>
		<path fill="#2E80C3" d="M139.65,194.423c0.853,0,1.661,0.107,2.428,0.32c0.765,0.213,1.434,0.537,2.006,0.974
			c0.571,0.437,1.027,0.999,1.366,1.687s0.509,1.497,0.509,2.428c0,1.317-0.339,2.461-1.018,3.43
			c-0.679,0.97-1.687,1.59-3.023,1.861v0.058c0.678,0.098,1.24,0.276,1.687,0.538c0.445,0.262,0.809,0.596,1.09,1.003
			c0.28,0.407,0.484,0.877,0.61,1.41s0.208,1.109,0.247,1.729c0.02,0.349,0.039,0.775,0.059,1.279
			c0.019,0.504,0.058,1.013,0.116,1.526c0.058,0.514,0.149,0.998,0.276,1.453c0.125,0.456,0.295,0.81,0.509,1.062h-2.181
			c-0.116-0.193-0.209-0.431-0.276-0.712c-0.068-0.281-0.116-0.572-0.146-0.872c-0.029-0.301-0.054-0.597-0.072-0.887
			c-0.02-0.291-0.039-0.543-0.059-0.756c-0.039-0.736-0.102-1.469-0.188-2.195c-0.088-0.727-0.271-1.376-0.553-1.948
			c-0.281-0.571-0.688-1.031-1.221-1.381c-0.533-0.349-1.265-0.504-2.195-0.465h-7.5v9.216h-1.978v-20.758H139.65z M139.505,204.278
			c0.601,0,1.173-0.092,1.715-0.276c0.543-0.184,1.018-0.45,1.425-0.799s0.731-0.771,0.975-1.265
			c0.241-0.494,0.363-1.062,0.363-1.701c0-1.279-0.369-2.287-1.105-3.023s-1.86-1.104-3.372-1.104h-7.384v8.169H139.505z"/>
		<path fill="#2E80C3" d="M163.867,194.423v1.687h-12.355v7.501h11.57v1.686h-11.57v8.198h12.501v1.687h-14.479v-20.758H163.867z"/>
		<path fill="#2E80C3" d="M168.198,211.023c0.349,0.717,0.829,1.289,1.439,1.715c0.61,0.427,1.332,0.732,2.165,0.916
			c0.834,0.185,1.726,0.276,2.676,0.276c0.542,0,1.133-0.077,1.773-0.232c0.639-0.155,1.235-0.402,1.787-0.741
			c0.553-0.339,1.013-0.775,1.381-1.309s0.553-1.178,0.553-1.934c0-0.581-0.131-1.085-0.393-1.512
			c-0.262-0.426-0.601-0.785-1.018-1.075c-0.417-0.291-0.877-0.528-1.381-0.713c-0.504-0.184-0.998-0.334-1.482-0.45l-4.623-1.134
			c-0.601-0.155-1.188-0.349-1.758-0.581c-0.572-0.233-1.072-0.543-1.498-0.931s-0.771-0.862-1.031-1.425
			c-0.262-0.562-0.393-1.25-0.393-2.063c0-0.504,0.096-1.096,0.29-1.773c0.194-0.679,0.558-1.318,1.091-1.92
			c0.532-0.6,1.264-1.108,2.194-1.525c0.931-0.416,2.122-0.625,3.576-0.625c1.026,0,2.006,0.136,2.937,0.406
			c0.93,0.271,1.744,0.68,2.441,1.222c0.698,0.542,1.255,1.216,1.672,2.021s0.625,1.74,0.625,2.806h-1.977
			c-0.039-0.795-0.219-1.487-0.538-2.079c-0.32-0.591-0.737-1.085-1.25-1.482c-0.514-0.396-1.104-0.697-1.773-0.901
			s-1.372-0.306-2.108-0.306c-0.678,0-1.332,0.073-1.962,0.219c-0.63,0.145-1.183,0.377-1.657,0.697s-0.857,0.742-1.148,1.265
			c-0.291,0.523-0.436,1.173-0.436,1.948c0,0.484,0.082,0.906,0.247,1.265c0.164,0.358,0.392,0.664,0.683,0.915
			c0.291,0.253,0.625,0.456,1.004,0.611c0.377,0.155,0.779,0.281,1.206,0.378l5.059,1.25c0.736,0.193,1.429,0.432,2.078,0.712
			c0.649,0.281,1.222,0.63,1.716,1.047s0.882,0.926,1.163,1.526c0.28,0.601,0.421,1.327,0.421,2.18c0,0.233-0.024,0.543-0.072,0.931
			c-0.049,0.388-0.165,0.8-0.349,1.235c-0.185,0.437-0.446,0.878-0.785,1.323c-0.34,0.446-0.805,0.848-1.396,1.206
			c-0.592,0.359-1.323,0.649-2.195,0.872s-1.918,0.335-3.14,0.335c-1.221,0-2.354-0.141-3.401-0.422
			c-1.047-0.28-1.938-0.712-2.675-1.294c-0.737-0.581-1.304-1.327-1.7-2.238c-0.398-0.911-0.567-2.006-0.51-3.285h1.978
			C167.685,209.415,167.85,210.307,168.198,211.023z"/>
		<path fill="#2E80C3" d="M199.306,194.423v1.687h-7.239v19.071h-1.977v-19.071h-7.21v-1.687H199.306z"/>
		<path fill="#2E80C3" d="M200.759,200.703c0.407-1.299,1.018-2.446,1.832-3.445c0.813-0.998,1.836-1.792,3.067-2.384
			c1.23-0.592,2.66-0.887,4.288-0.887s3.052,0.295,4.273,0.887c1.221,0.592,2.238,1.386,3.053,2.384
			c0.813,0.999,1.424,2.146,1.831,3.445c0.407,1.298,0.61,2.665,0.61,4.099c0,1.435-0.203,2.801-0.61,4.1s-1.018,2.441-1.831,3.431
			c-0.814,0.988-1.832,1.778-3.053,2.369c-1.222,0.591-2.646,0.887-4.273,0.887s-3.058-0.296-4.288-0.887
			c-1.231-0.591-2.254-1.381-3.067-2.369c-0.814-0.989-1.425-2.132-1.832-3.431c-0.406-1.299-0.61-2.665-0.61-4.1
			C200.148,203.368,200.353,202.001,200.759,200.703z M202.576,208.131c0.3,1.095,0.766,2.074,1.396,2.937s1.439,1.555,2.428,2.078
			s2.17,0.785,3.547,0.785c1.376,0,2.553-0.262,3.532-0.785c0.979-0.523,1.782-1.216,2.413-2.078
			c0.629-0.862,1.095-1.842,1.396-2.937c0.3-1.095,0.45-2.205,0.45-3.329c0-1.144-0.15-2.258-0.45-3.343
			c-0.301-1.086-0.767-2.06-1.396-2.922c-0.631-0.862-1.435-1.556-2.413-2.079c-0.979-0.523-2.156-0.785-3.532-0.785
			c-1.377,0-2.559,0.262-3.547,0.785s-1.798,1.217-2.428,2.079s-1.096,1.836-1.396,2.922c-0.301,1.085-0.45,2.199-0.45,3.343
			C202.126,205.926,202.275,207.036,202.576,208.131z"/>
		<path fill="#2E80C3" d="M237.113,198.565c-0.397-0.629-0.882-1.157-1.453-1.584c-0.572-0.426-1.202-0.751-1.89-0.974
			c-0.688-0.223-1.41-0.335-2.166-0.335c-1.377,0-2.559,0.262-3.547,0.785s-1.798,1.217-2.428,2.079s-1.095,1.836-1.396,2.922
			c-0.301,1.085-0.45,2.199-0.45,3.343c0,1.124,0.149,2.234,0.45,3.329s0.766,2.074,1.396,2.937s1.439,1.555,2.428,2.078
			s2.17,0.785,3.547,0.785c0.969,0,1.841-0.175,2.616-0.523s1.443-0.823,2.006-1.425c0.562-0.601,1.018-1.303,1.366-2.107
			c0.35-0.804,0.571-1.672,0.669-2.602h1.977c-0.136,1.278-0.436,2.432-0.901,3.459c-0.465,1.027-1.065,1.899-1.802,2.616
			c-0.737,0.718-1.604,1.271-2.603,1.657c-0.998,0.388-2.107,0.582-3.328,0.582c-1.628,0-3.058-0.296-4.288-0.887
			c-1.231-0.591-2.254-1.381-3.067-2.369c-0.814-0.989-1.425-2.132-1.832-3.431c-0.406-1.299-0.61-2.665-0.61-4.1
			c0-1.434,0.204-2.801,0.61-4.099c0.407-1.299,1.018-2.446,1.832-3.445c0.813-0.998,1.836-1.792,3.067-2.384
			c1.23-0.592,2.66-0.887,4.288-0.887c0.988,0,1.952,0.145,2.893,0.436c0.939,0.291,1.792,0.723,2.559,1.294
			c0.765,0.571,1.404,1.274,1.918,2.108c0.514,0.833,0.839,1.793,0.975,2.878h-1.978
			C237.797,199.908,237.511,199.196,237.113,198.565z"/>
		<path fill="#2E80C3" d="M245.239,194.423v11.164l12.064-11.164h2.675l-9.273,8.576l9.71,12.182h-2.559l-8.635-10.814l-3.982,3.691
			v7.123h-1.978v-20.758H245.239z"/>
	</g>
</g>
<g>
	<path fill="#49494A" d="M-273.11,362.519c-0.672,1.129-1.551,1.943-2.641,2.439c-1.088,0.498-2.318,0.746-3.689,0.746
		c-1.561,0-2.932-0.303-4.113-0.908c-1.184-0.604-2.158-1.424-2.924-2.459c-0.768-1.035-1.346-2.225-1.734-3.568
		c-0.391-1.344-0.586-2.742-0.586-4.195c0-1.396,0.195-2.748,0.586-4.053c0.389-1.303,0.967-2.453,1.734-3.447
		c0.766-0.996,1.727-1.795,2.883-2.4s2.5-0.908,4.033-0.908c1.236,0,2.412,0.264,3.527,0.787c1.117,0.525,1.998,1.299,2.643,2.32
		h0.08V335.13l5.727,2.092v27.959h-5.443v-2.662H-273.11z M-273.35,352.214c-0.162-0.791-0.438-1.492-0.828-2.096
		c-0.389-0.605-0.893-1.096-1.512-1.473s-1.398-0.564-2.34-0.564s-1.732,0.188-2.379,0.564c-0.645,0.377-1.162,0.873-1.553,1.492
		c-0.389,0.619-0.672,1.324-0.846,2.117c-0.176,0.793-0.264,1.621-0.264,2.48c0,0.807,0.096,1.613,0.283,2.42
		s0.49,1.525,0.908,2.156c0.416,0.633,0.939,1.145,1.572,1.533c0.631,0.391,1.391,0.584,2.277,0.584
		c0.941,0,1.729-0.188,2.359-0.564c0.633-0.375,1.137-0.879,1.514-1.512c0.375-0.631,0.645-1.352,0.807-2.158
		c0.16-0.805,0.24-1.639,0.24-2.5C-273.11,353.835-273.19,353.007-273.35,352.214z"/>
	<path fill="#49494A" d="M-257.704,344.331v20.85h-5.727v-20.85H-257.704z"/>
	<path fill="#49494A" d="M-254.559,367.761c0.592,0,1.109-0.113,1.553-0.342s0.666-0.732,0.666-1.514v-21.574h5.727v21.857
		c0,1.074-0.115,2.002-0.342,2.783c-0.229,0.779-0.619,1.432-1.17,1.955c-0.553,0.525-1.299,0.914-2.238,1.17
		c-0.941,0.256-2.139,0.383-3.59,0.383c-0.672,0-1.277-0.055-1.814-0.16v-4.719C-255.471,367.708-255.069,367.761-254.559,367.761z"
		/>
	<path fill="#49494A" d="M-242.944,367.761c0.592,0,1.109-0.113,1.553-0.342s0.664-0.732,0.664-1.514v-21.574h5.729v21.857
		c0,1.074-0.115,2.002-0.344,2.783c-0.229,0.779-0.619,1.432-1.17,1.955c-0.551,0.525-1.297,0.914-2.238,1.17
		s-2.137,0.383-3.588,0.383c-0.674,0-1.277-0.055-1.814-0.16v-4.719C-243.858,367.708-243.454,367.761-242.944,367.761z"/>
	<path fill="#49494A" d="M-223.625,344.331v20.85h-5.727v-20.85H-223.625z"/>
	<polygon fill="#49494A" points="-263.266,342.778 -263.266,338.573 -257.704,339.829 -257.704,342.778 	"/>
	<polygon fill="#49494A" points="-252.176,342.778 -252.176,340.247 -246.614,340.667 -246.614,342.778 	"/>
	<polygon fill="#49494A" points="-240.561,342.778 -240.561,340.667 -234.999,340.247 -234.999,342.778 	"/>
	<polygon fill="#49494A" points="-229.188,342.778 -229.188,339.409 -223.625,337.735 -223.625,342.778 	"/>
	<path fill="#B74E4E" d="M-291.612,345.749l-12.123-12.123c-3.152,3.438-4.797,7.76-4.936,12.123H-291.612z"/>
	<path fill="#963232" d="M-308.668,346.966c0.145,4.428,1.834,8.816,5.084,12.277l12.277-12.277H-308.668z"/>
	<path fill="#6A0E0E" d="M-290.663,348.042l-12.062,12.061c3.406,3.197,7.707,4.887,12.062,5.078V348.042z"/>
	<path fill="#D16969" d="M-290.663,327.532c-4.422,0.191-8.789,1.934-12.219,5.225l12.219,12.219V327.532z"/>
	<path fill="#F49399" d="M-289.446,345.103l12.496-12.494c-3.52-3.303-7.994-4.994-12.496-5.088V345.103z"/>
	<g>
		<path fill="#B74E4E" d="M-208.896,344.423c0.93,0,1.773,0.131,2.529,0.393s1.405,0.648,1.948,1.162
			c0.542,0.514,0.959,1.139,1.25,1.875c0.291,0.738,0.436,1.57,0.436,2.5c0,0.932-0.145,1.766-0.436,2.502
			c-0.291,0.736-0.708,1.361-1.25,1.875c-0.543,0.514-1.192,0.9-1.948,1.162s-1.599,0.393-2.529,0.393h-7.239v8.896h-1.977v-20.758
			H-208.896z M-209.332,354.599c1.376,0,2.49-0.35,3.343-1.047c0.853-0.697,1.279-1.764,1.279-3.199c0-1.434-0.427-2.5-1.279-3.197
			c-0.853-0.697-1.967-1.047-3.343-1.047h-6.803v8.49H-209.332z"/>
		<path fill="#B74E4E" d="M-197.819,344.423v19.07h11.628v1.688h-13.605v-20.758H-197.819z"/>
		<path fill="#B74E4E" d="M-175.9,344.423l8.141,20.758h-2.123l-2.529-6.455h-9.447l-2.5,6.455h-2.093l8.344-20.758H-175.9z
			 M-173.08,357.04l-4.012-10.641l-4.158,10.641H-173.08z"/>
		<path fill="#B74E4E" d="M-163.69,344.423l12.094,17.559h0.059v-17.559h1.977v20.758h-2.209l-12.094-17.561h-0.059v17.561h-1.977
			v-20.758H-163.69z"/>
		<path fill="#B74E4E" d="M-143.223,344.423l12.094,17.559h0.059v-17.559h1.977v20.758h-2.209l-12.094-17.561h-0.059v17.561h-1.977
			v-20.758H-143.223z"/>
		<path fill="#B74E4E" d="M-110.604,344.423v1.686h-12.355v7.502h11.57v1.686h-11.57v8.197h12.501v1.688h-14.479v-20.758H-110.604z"
			/>
		<path fill="#B74E4E" d="M-98.191,344.423c0.853,0,1.662,0.107,2.428,0.32s1.434,0.537,2.006,0.973
			c0.571,0.438,1.027,0.998,1.366,1.688c0.339,0.688,0.509,1.496,0.509,2.428c0,1.316-0.339,2.461-1.018,3.43
			s-1.686,1.59-3.023,1.861v0.057c0.679,0.098,1.24,0.277,1.687,0.539c0.445,0.262,0.809,0.596,1.09,1.002
			c0.281,0.408,0.484,0.877,0.61,1.41s0.208,1.109,0.247,1.73c0.02,0.348,0.039,0.775,0.059,1.279s0.059,1.012,0.116,1.525
			c0.059,0.514,0.15,0.998,0.276,1.453c0.126,0.457,0.295,0.811,0.509,1.062h-2.181c-0.116-0.193-0.208-0.432-0.276-0.713
			c-0.067-0.281-0.116-0.572-0.146-0.871c-0.028-0.301-0.053-0.598-0.072-0.887c-0.02-0.291-0.039-0.543-0.059-0.756
			c-0.039-0.736-0.102-1.469-0.188-2.195s-0.271-1.377-0.553-1.949c-0.281-0.57-0.688-1.031-1.221-1.381
			c-0.533-0.348-1.265-0.504-2.195-0.465h-7.5v9.217h-1.978v-20.758H-98.191z M-98.336,354.278c0.601,0,1.173-0.092,1.716-0.277
			c0.542-0.184,1.018-0.449,1.424-0.799c0.407-0.348,0.731-0.77,0.975-1.264c0.242-0.494,0.363-1.062,0.363-1.701
			c0-1.279-0.368-2.287-1.104-3.023c-0.737-0.736-1.861-1.105-3.373-1.105h-7.384v8.17H-98.336z"/>
	</g>
</g>
<g>
	<path fill="#2E80C3" d="M264.012,191.353v0.366h-1.034v2.704h-0.42v-2.704h-1.034v-0.366H264.012z"/>
	<path fill="#2E80C3" d="M264.384,191.353h0.596l0.883,2.595l0.877-2.595h0.591v3.07h-0.396v-1.812c0-0.062,0.001-0.167,0.004-0.312
		s0.004-0.3,0.004-0.466l-0.876,2.589h-0.412l-0.885-2.589v0.094c0,0.075,0.002,0.19,0.007,0.344
		c0.004,0.154,0.006,0.267,0.006,0.34v1.812h-0.397V191.353z"/>
</g>
<g>
	<path fill="#80529F" d="M-73.977,191.353v0.366h-1.034v2.704h-0.42v-2.704h-1.034v-0.366H-73.977z"/>
	<path fill="#80529F" d="M-73.604,191.353h0.596l0.883,2.595l0.877-2.595h0.591v3.07h-0.396v-1.812c0-0.062,0.001-0.167,0.004-0.312
		s0.004-0.3,0.004-0.466l-0.876,2.589h-0.412l-0.885-2.589v0.094c0,0.075,0.002,0.19,0.007,0.344
		c0.004,0.154,0.006,0.267,0.006,0.34v1.812h-0.397V191.353z"/>
</g>
<g>
	<path fill="#56B44C" d="M604.006,191.353v0.366h-1.034v2.704h-0.42v-2.704h-1.034v-0.366H604.006z"/>
	<path fill="#56B44C" d="M604.378,191.353h0.596l0.883,2.595l0.877-2.595h0.591v3.07h-0.396v-1.812c0-0.062,0.001-0.167,0.004-0.312
		s0.004-0.3,0.004-0.466l-0.876,2.589h-0.412l-0.885-2.589v0.094c0,0.075,0.002,0.19,0.007,0.344
		c0.004,0.154,0.006,0.267,0.006,0.34v1.812h-0.397V191.353z"/>
</g>
<g>
	<path fill="#6ABD52" d="M249.001,42.354v0.366h-1.034v2.704h-0.42V42.72h-1.034v-0.366H249.001z"/>
	<path fill="#6ABD52" d="M249.373,42.354h0.596l0.883,2.595l0.877-2.595h0.591v3.07h-0.396v-1.812c0-0.062,0.001-0.167,0.004-0.312
		s0.004-0.3,0.004-0.466l-0.876,2.589h-0.412l-0.885-2.589v0.094c0,0.075,0.002,0.19,0.007,0.344
		c0.004,0.154,0.006,0.267,0.006,0.34v1.812h-0.397V42.354z"/>
</g>
<g>
	<path fill="#444445" d="M-226.052,7.329v0.366h-1.034v2.704h-0.42V7.694h-1.034V7.329H-226.052z"/>
	<path fill="#444445" d="M-225.68,7.329h0.596l0.883,2.595l0.877-2.595h0.591v3.07h-0.396V8.587c0-0.062,0.001-0.167,0.004-0.312
		s0.004-0.3,0.004-0.466l-0.876,2.589h-0.412l-0.885-2.589v0.094c0,0.075,0.002,0.19,0.007,0.344
		c0.004,0.154,0.006,0.267,0.006,0.34v1.812h-0.397V7.329z"/>
</g>
</svg>
