<?xml version="1.0" encoding="utf-8"?>
<!-- Generator: Adobe Illustrator 16.2.1, SVG Export Plug-In . SVG Version: 6.00 Build 0)  -->
<!DOCTYPE svg PUBLIC "-//W3C//DTD SVG 1.1//EN" "http://www.w3.org/Graphics/SVG/1.1/DTD/svg11.dtd">
<svg version="1.1" id="Layer_1" xmlns="http://www.w3.org/2000/svg" xmlns:xlink="http://www.w3.org/1999/xlink" x="0px" y="0px"
	 width="50px" height="50px" viewBox="0 0 50 50" enable-background="new 0 0 50 50" xml:space="preserve">
<g opacity="0.5">
	<path fill="#FFFFFF" d="M43.5,35.775c0-1.809-1.467-3.275-3.275-3.275H9.775c-1.809,0-3.275,1.467-3.275,3.275v0.449
		c0,1.809,1.466,3.275,3.275,3.275h30.449c1.809,0,3.275-1.467,3.275-3.275V35.775z"/>
	<path fill="#FFFFFF" d="M43.5,13.775c0-1.809-1.467-3.275-3.275-3.275H9.775c-1.809,0-3.275,1.466-3.275,3.275v0.449
		c0,1.809,1.466,3.275,3.275,3.275h30.449c1.809,0,3.275-1.466,3.275-3.275V13.775z"/>
	<path fill="#FFFFFF" d="M43.5,24.775c0-1.809-1.467-3.275-3.275-3.275H9.775c-1.809,0-3.275,1.466-3.275,3.275v0.449
		c0,1.809,1.466,3.275,3.275,3.275h30.449c1.809,0,3.275-1.467,3.275-3.275V24.775z"/>
</g>
</svg>
