<?xml version="1.0" encoding="utf-8"?>
<!-- Generator: Adobe Illustrator 16.2.1, SVG Export Plug-In . SVG Version: 6.00 Build 0)  -->
<!DOCTYPE svg PUBLIC "-//W3C//DTD SVG 1.1//EN" "http://www.w3.org/Graphics/SVG/1.1/DTD/svg11.dtd">
<svg version="1.1" xmlns="http://www.w3.org/2000/svg" xmlns:xlink="http://www.w3.org/1999/xlink" x="0px" y="0px" width="32px"
	 height="32px" viewBox="0 0 32 32" enable-background="new 0 0 32 32" xml:space="preserve">
<g id="From_Your_Friends_at_User10.com">
	<linearGradient id="SVGID_1_" gradientUnits="userSpaceOnUse" x1="-111.1748" y1="166.7539" x2="-111.1748" y2="-333.2456">
		<stop  offset="0" style="stop-color:#F2F2F2"/>
		<stop  offset="0.6319" style="stop-color:#FFFFFF"/>
		<stop  offset="1" style="stop-color:#FEFEFE"/>
	</linearGradient>
	<rect x="-611.175" y="-333.246" fill="url(#SVGID_1_)" width="1000" height="500"/>
</g>
<g id="RAW_ICONS_-_SQUARE__x2F__ROUNDED__x2F__CIRCLE">
	<path fill="#CB2027" d="M27,0H5C2.238,0,0,2.24,0,5v22c0,2.762,2.238,5,5,5h22c2.762,0,5-2.238,5-5V5C32,2.24,29.762,0,27,0z
		 M17.652,19.564c-0.992,0-1.926-0.537-2.245-1.146c0,0-0.534,2.117-0.646,2.527c-0.398,1.443-1.569,2.889-1.659,3.006
		c-0.063,0.084-0.204,0.057-0.219-0.051c-0.025-0.186-0.324-2.008,0.027-3.494c0.177-0.746,1.183-5.008,1.183-5.008
		s-0.294-0.586-0.294-1.453c0-1.363,0.79-2.379,1.773-2.379c0.836,0,1.238,0.627,1.238,1.379c0,0.842-0.534,2.098-0.811,3.262
		c-0.23,0.975,0.488,1.77,1.45,1.77c1.741,0,2.914-2.236,2.914-4.885c0-2.016-1.356-3.523-3.824-3.523
		c-2.787,0-4.524,2.08-4.524,4.402c0,0.801,0.236,1.365,0.606,1.803c0.17,0.201,0.193,0.281,0.132,0.512
		c-0.045,0.17-0.145,0.576-0.188,0.738c-0.061,0.232-0.25,0.314-0.46,0.229c-1.284-0.523-1.882-1.93-1.882-3.51
		c0-2.611,2.201-5.742,6.568-5.742c3.509,0,5.818,2.539,5.818,5.266C22.611,16.871,20.606,19.564,17.652,19.564z"/>
</g>
</svg>
