<?xml version="1.0" encoding="utf-8"?>
<!-- Generator: Adobe Illustrator 16.2.1, SVG Export Plug-In . SVG Version: 6.00 Build 0)  -->
<!DOCTYPE svg PUBLIC "-//W3C//DTD SVG 1.1//EN" "http://www.w3.org/Graphics/SVG/1.1/DTD/svg11.dtd">
<svg version="1.1" xmlns="http://www.w3.org/2000/svg" xmlns:xlink="http://www.w3.org/1999/xlink" x="0px" y="0px" width="32px"
	 height="32px" viewBox="0 0 32 32" enable-background="new 0 0 32 32" xml:space="preserve">
<g id="From_Your_Friends_at_User10.com">
	<linearGradient id="SVGID_1_" gradientUnits="userSpaceOnUse" x1="-206.7832" y1="166.7539" x2="-206.7832" y2="-333.2456">
		<stop  offset="0" style="stop-color:#F2F2F2"/>
		<stop  offset="0.6319" style="stop-color:#FFFFFF"/>
		<stop  offset="1" style="stop-color:#FEFEFE"/>
	</linearGradient>
	<rect x="-706.783" y="-333.246" fill="url(#SVGID_1_)" width="1000" height="500"/>
</g>
<g id="RAW_ICONS_-_SQUARE__x2F__ROUNDED__x2F__CIRCLE">
	<g>
		<path fill="#EE3537" d="M14.913,21.176c-0.076,0.088-0.159,0.16-0.251,0.219c-0.091,0.057-0.167,0.084-0.226,0.084
			c-0.075,0-0.131-0.02-0.166-0.064c-0.032-0.043-0.05-0.111-0.05-0.207V18.1h-0.81v3.387c0,0.242,0.048,0.42,0.142,0.541
			c0.096,0.123,0.235,0.182,0.424,0.182c0.151,0,0.309-0.041,0.47-0.129c0.162-0.086,0.317-0.211,0.467-0.375v0.445h0.81V18.1h-0.81
			V21.176z"/>
		<polygon fill="#EE3537" points="10.256,17.459 11.199,17.459 11.199,22.15 12.111,22.15 12.111,17.459 13.056,17.459 
			13.056,16.66 10.256,16.66 		"/>
		<path fill="#EE3537" d="M15.858,13.562c0.124,0,0.222-0.033,0.294-0.102c0.073-0.068,0.11-0.164,0.11-0.283v-2.43
			c0-0.098-0.037-0.176-0.111-0.236s-0.172-0.09-0.293-0.09c-0.11,0-0.201,0.029-0.271,0.09c-0.068,0.061-0.104,0.139-0.104,0.236
			v2.43c0,0.123,0.033,0.217,0.098,0.283C15.646,13.531,15.738,13.562,15.858,13.562z"/>
		<path fill="#EE3537" d="M17.87,18.051c-0.126,0-0.25,0.031-0.374,0.096c-0.121,0.064-0.237,0.16-0.347,0.281V16.66h-0.818v5.49
			h0.818V21.84c0.105,0.125,0.223,0.215,0.347,0.273c0.123,0.061,0.264,0.088,0.423,0.088c0.239,0,0.424-0.074,0.55-0.229
			c0.128-0.154,0.19-0.373,0.19-0.658v-2.248c0-0.332-0.066-0.584-0.202-0.758C18.322,18.137,18.127,18.051,17.87,18.051z
			 M17.825,21.201c0,0.131-0.023,0.223-0.069,0.279c-0.047,0.059-0.119,0.088-0.219,0.088c-0.068,0-0.133-0.016-0.195-0.045
			c-0.062-0.027-0.127-0.078-0.192-0.143v-2.523c0.056-0.057,0.11-0.098,0.167-0.125c0.057-0.025,0.114-0.039,0.172-0.039
			c0.108,0,0.193,0.035,0.252,0.105c0.058,0.07,0.085,0.174,0.085,0.312V21.201z"/>
		<path fill="#EE3537" d="M27,0H5C2.239,0,0,2.24,0,5v22c0,2.762,2.239,5,5,5h22c2.762,0,5-2.238,5-5V5C32,2.24,29.762,0,27,0z
			 M17.93,9.762h0.91v3.42c0,0.105,0.021,0.182,0.059,0.229c0.037,0.049,0.101,0.072,0.186,0.072c0.066,0,0.152-0.031,0.255-0.094
			c0.102-0.064,0.195-0.143,0.28-0.24V9.762h0.912v4.461h-0.912v-0.494c-0.167,0.182-0.342,0.322-0.524,0.416
			c-0.182,0.094-0.357,0.145-0.528,0.145c-0.212,0-0.369-0.068-0.477-0.203c-0.106-0.131-0.16-0.33-0.16-0.596V9.762z
			 M14.546,10.781c0-0.346,0.123-0.621,0.367-0.824c0.245-0.205,0.576-0.307,0.99-0.307c0.377,0,0.686,0.107,0.928,0.322
			c0.239,0.215,0.359,0.496,0.359,0.834v2.305c0,0.383-0.117,0.68-0.353,0.898c-0.237,0.217-0.562,0.326-0.977,0.326
			c-0.398,0-0.718-0.113-0.957-0.338c-0.238-0.225-0.358-0.525-0.358-0.904V10.781z M12.063,8.176l0.666,2.418h0.064l0.636-2.418
			h1.042l-1.194,3.539v2.508h-1.025v-2.396l-1.222-3.65H12.063z M24,20.902c0,1.613-1.31,2.924-2.923,2.924H10.922
			C9.308,23.826,8,22.516,8,20.902v-2.35c0-1.613,1.308-2.924,2.922-2.924h10.155c1.613,0,2.923,1.311,2.923,2.924V20.902z"/>
		<path fill="#EE3537" d="M20.313,18c-0.362,0-0.656,0.109-0.886,0.33s-0.344,0.51-0.344,0.859v1.818
			c0,0.391,0.105,0.697,0.312,0.918c0.208,0.225,0.494,0.334,0.856,0.334c0.403,0,0.707-0.104,0.908-0.312
			c0.205-0.211,0.306-0.523,0.306-0.939v-0.207h-0.833v0.184c0,0.238-0.028,0.393-0.08,0.463c-0.054,0.07-0.147,0.105-0.282,0.105
			c-0.129,0-0.221-0.041-0.274-0.123c-0.053-0.084-0.079-0.232-0.079-0.445v-0.762h1.549v-1.033c0-0.385-0.1-0.678-0.299-0.883
			C20.97,18.102,20.685,18,20.313,18z M20.634,19.592h-0.716v-0.408c0-0.17,0.027-0.293,0.084-0.363
			c0.057-0.076,0.148-0.113,0.277-0.113c0.123,0,0.215,0.037,0.27,0.113c0.056,0.07,0.085,0.193,0.085,0.363V19.592z"/>
	</g>
</g>
</svg>
