<?xml version="1.0" encoding="utf-8"?>
<!-- Generator: Adobe Illustrator 16.2.1, SVG Export Plug-In . SVG Version: 6.00 Build 0)  -->
<!DOCTYPE svg PUBLIC "-//W3C//DTD SVG 1.1//EN" "http://www.w3.org/Graphics/SVG/1.1/DTD/svg11.dtd">
<svg version="1.1" xmlns="http://www.w3.org/2000/svg" xmlns:xlink="http://www.w3.org/1999/xlink" x="0px" y="0px" width="32px"
	 height="32px" viewBox="0 0 32 32" enable-background="new 0 0 32 32" xml:space="preserve">
<g id="From_Your_Friends_at_User10.com" display="none">
	<linearGradient id="SVGID_1_" gradientUnits="userSpaceOnUse" x1="32.2373" y1="166.7539" x2="32.2373" y2="-333.2456">
		<stop  offset="0" style="stop-color:#F2F2F2"/>
		<stop  offset="0.6319" style="stop-color:#FFFFFF"/>
		<stop  offset="1" style="stop-color:#FEFEFE"/>
	</linearGradient>
	<rect x="-467.763" y="-333.246" display="inline" fill="url(#SVGID_1_)" width="1000" height="500"/>
</g>
<g id="RAW_ICONS_-_SQUARE__x2F__ROUNDED__x2F__CIRCLE">
	<g>
		<path fill="#0A6C9B" d="M27,0H5C2.238,0,0,2.24,0,5v22c0,2.762,2.238,5,5,5h22c2.761,0,5-2.238,5-5V5C32,2.24,29.761,0,27,0z
			 M11.633,23.646H8.202V13.33h3.431V23.646z M9.917,11.922H9.895C8.744,11.922,8,11.127,8,10.139c0-1.014,0.768-1.785,1.939-1.785
			c1.174,0,1.896,0.771,1.918,1.785C11.857,11.127,11.113,11.922,9.917,11.922z M24,23.646h-3.43v-5.52
			c0-1.387-0.496-2.334-1.738-2.334c-0.946,0-1.512,0.641-1.76,1.256c-0.091,0.221-0.113,0.527-0.113,0.836v5.762H13.53
			c0,0,0.044-9.35,0-10.316h3.429v1.461c0.457-0.703,1.271-1.703,3.092-1.703c2.256,0,3.949,1.475,3.949,4.645V23.646z"/>
		<path fill="#0A6C9B" d="M16.959,14.824v-0.033c-0.006,0.012-0.015,0.023-0.022,0.033H16.959z"/>
	</g>
</g>
</svg>
