<?xml version="1.0" encoding="utf-8"?>
<!-- Generator: Adobe Illustrator 16.2.1, SVG Export Plug-In . SVG Version: 6.00 Build 0)  -->
<!DOCTYPE svg PUBLIC "-//W3C//DTD SVG 1.1//EN" "http://www.w3.org/Graphics/SVG/1.1/DTD/svg11.dtd">
<svg version="1.1" xmlns="http://www.w3.org/2000/svg" xmlns:xlink="http://www.w3.org/1999/xlink" x="0px" y="0px" width="32px"
	 height="32px" viewBox="0 0 32 32" enable-background="new 0 0 32 32" xml:space="preserve">
<g id="From_Your_Friends_at_User10.com" display="none">
	<linearGradient id="SVGID_1_" gradientUnits="userSpaceOnUse" x1="-63.3701" y1="166.7539" x2="-63.3701" y2="-333.2456">
		<stop  offset="0" style="stop-color:#F2F2F2"/>
		<stop  offset="0.6319" style="stop-color:#FFFFFF"/>
		<stop  offset="1" style="stop-color:#FEFEFE"/>
	</linearGradient>
	<rect x="-563.37" y="-333.246" display="inline" fill="url(#SVGID_1_)" width="1000" height="500"/>
</g>
<g id="RAW_ICONS_-_SQUARE__x2F__ROUNDED__x2F__CIRCLE">
	<g>
		<path fill="#DC5442" d="M12.751,8.768c-1.271-0.037-2.124,1.24-1.903,2.91c0.219,1.668,1.427,2.834,2.698,2.873
			c1.271,0.037,2.001-1.037,1.782-2.705C15.109,10.176,14.021,8.807,12.751,8.768z"/>
		<path fill="#DC5442" d="M13.285,17.967c-1.895-0.021-3.499,1.197-3.499,2.607c0,1.441,1.368,2.639,3.262,2.639
			c2.663,0,3.591-1.125,3.591-2.564c0-0.174-0.021-0.344-0.061-0.508c-0.209-0.816-1.037-1.262-2.066-1.977
			C14.139,18.043,13.727,17.971,13.285,17.967z"/>
		<path fill="#DC5442" d="M27,0H5C2.239,0,0,2.24,0,5v22c0,2.762,2.239,5,5,5h22c2.762,0,5-2.238,5-5V5C32,2.24,29.762,0,27,0z
			 M17.223,11.773c0,1.043-0.577,1.883-1.393,2.521c-0.797,0.621-0.947,0.883-0.947,1.41c0,0.451,0.951,1.125,1.389,1.453
			c1.522,1.141,1.831,1.859,1.831,3.289c0,1.781-1.921,3.555-5.044,3.555c-2.74,0-5.053-1.115-5.053-2.896
			c0-1.811,1.918-3.695,4.658-3.695c0.299,0,0.572-0.008,0.855-0.008c-0.375-0.365-0.678-0.68-0.678-1.23
			c0-0.326,0.104-0.639,0.25-0.92c-0.148,0.012-0.301,0.02-0.457,0.02c-2.251,0-3.562-1.58-3.562-3.564
			c0-1.941,1.995-3.705,4.388-3.705c1.233,0,4.716,0,4.716,0l-1.054,1.105h-1.238C16.759,9.607,17.223,10.639,17.223,11.773z
			 M23.994,11.482h-2.176v2.176H20.73v-2.176h-2.175v-1.088h2.175V8.219h1.088v2.176h2.176V11.482z"/>
	</g>
</g>
</svg>
