<?xml version="1.0" encoding="utf-8"?>
<!-- Generator: Adobe Illustrator 16.2.1, SVG Export Plug-In . SVG Version: 6.00 Build 0)  -->
<!DOCTYPE svg PUBLIC "-//W3C//DTD SVG 1.1//EN" "http://www.w3.org/Graphics/SVG/1.1/DTD/svg11.dtd">
<svg version="1.1" xmlns="http://www.w3.org/2000/svg" xmlns:xlink="http://www.w3.org/1999/xlink" x="0px" y="0px" width="32px"
	 height="32px" viewBox="0 0 32 32" enable-background="new 0 0 32 32" xml:space="preserve">
<g id="From_Your_Friends_at_User10.com" display="none">
	<linearGradient id="SVGID_1_" gradientUnits="userSpaceOnUse" x1="127.8467" y1="166.7539" x2="127.8467" y2="-333.2456">
		<stop  offset="0" style="stop-color:#F2F2F2"/>
		<stop  offset="0.6319" style="stop-color:#FFFFFF"/>
		<stop  offset="1" style="stop-color:#FEFEFE"/>
	</linearGradient>
	<rect x="-372.153" y="-333.246" display="inline" fill="url(#SVGID_1_)" width="1000" height="500"/>
</g>
<g id="RAW_ICONS_-_SQUARE__x2F__ROUNDED__x2F__CIRCLE">
	<path fill="#36609F" d="M27,0H5C2.239,0,0,2.24,0,5v22c0,2.762,2.239,5,5,5h22c2.762,0,5-2.238,5-5V5C32,2.24,29.762,0,27,0z
		 M19.428,16.006h-2.242c0,3.584,0,7.994,0,7.994h-3.322c0,0,0-4.367,0-7.994h-1.58v-2.824h1.58v-1.828
		c0-1.307,0.621-3.354,3.353-3.354l2.461,0.01v2.742c0,0-1.496,0-1.786,0c-0.291,0-0.705,0.146-0.705,0.77v1.66h2.533L19.428,16.006
		z"/>
</g>
</svg>
